<?xml version="1.0"?>
<svg width="615" height="360" xmlns="http://www.w3.org/2000/svg" xmlns:svg="http://www.w3.org/2000/svg">
 <g class="layer">
  <title>Layer 1</title>
  <path d="m593.3,223.5l-435.6,0l0,135.9l435.6,0l0,-135.9z" fill="#5865F2" id="svg_2"/>
  <path d="m157.7,265.5l435.6,-35.1l0,-6.9l-435.6,0l0,42z" fill="#4B59F2" id="svg_3"/>
  <path d="m593.3,223.5l-3.2,0l0,135.9l3.2,0l0,-135.9z" fill="#3543DE" id="svg_4"/>
  <path d="m554,223.5l-3.2,0l0,135.9l3.2,0l0,-135.9z" fill="#3543DE" id="svg_5"/>
  <path d="m514.7,223.5l-3.2,0l0,135.9l3.2,0l0,-135.9z" fill="#3543DE" id="svg_6"/>
  <path d="m475.4,223.5l-3.2,0l0,135.9l3.2,0l0,-135.9z" fill="#3543DE" id="svg_7"/>
  <path d="m436,223.5l-3.2,0l0,135.9l3.2,0l0,-135.9z" fill="#3543DE" id="svg_8"/>
  <path d="m396.7,223.5l-3.2,0l0,135.9l3.2,0l0,-135.9z" fill="#3543DE" id="svg_9"/>
  <path d="m357.4,223.5l-3.2,0l0,135.9l3.2,0l0,-135.9z" fill="#3543DE" id="svg_10"/>
  <path d="m318.1,223.5l-3.2,0l0,135.9l3.2,0l0,-135.9z" fill="#3543DE" id="svg_11"/>
  <path d="m278.8,223.5l-3.2,0l0,135.9l3.2,0l0,-135.9z" fill="#3543DE" id="svg_12"/>
  <path d="m239.5,223.5l-3.2,0l0,135.9l3.2,0l0,-135.9z" fill="#3543DE" id="svg_13"/>
  <path d="m200.2,223.5l-3.2,0l0,135.9l3.2,0l0,-135.9z" fill="#3543DE" id="svg_14"/>
  <path d="m160.9,223.5l-3.2,0l0,135.9l3.2,0l0,-135.9z" fill="#3543DE" id="svg_15"/>
  <path d="m275.9,97.8c-4.1,-13.6 -6.3,-20.1 1.1,-24.1c7.4,-4 29.9,-1.3 40.4,1.2c10.5,2.5 12,5.1 5.1,15.4l-46.6,7.5z" fill="#FFF4B3" id="svg_16"/>
  <path d="m271.1,220.1c-1.6,-40.4 -0.6,-74 0.7,-91.9c-6.7,-4.4 -9.8,-7.8 -11.1,-9.7c-0.27,-0.37 -0.41,-0.81 -0.39,-1.27c0.02,-0.45 0.19,-0.89 0.49,-1.23c10.6,-13.3 19.7,-24.9 29.2,-30.3c9.5,-5.4 22.5,-6.8 43.2,13.8c0.2,0.26 0.3,0.59 0.28,0.92c-0.02,0.33 -0.15,0.64 -0.38,0.88c-1.64,1.63 -3.38,3.17 -5.2,4.6c4.2,7.5 10.3,18.9 10.3,18.9l4.8,0c3.08,0 6.03,1.22 8.2,3.4c2.18,2.17 3.4,5.12 3.4,8.2c0.1,9.3 -2.1,20.5 -6.4,34.9c19.2,15.6 14.5,48.7 14.5,48.7l-91.6,0.1z" fill="#29CC7A" id="svg_17"/>
  <path d="m348.2,171.3c0.6,-2.1 1.2,-4 1.7,-6l-15.1,8.4c0,0 -23.9,-16.1 -64,-26.1c-0.7,18.6 -0.8,43.8 0.3,72.5l91.6,0c0,0 4.7,-33.2 -14.5,-48.8z" fill="#8CD9FF" id="svg_18"/>
  <path d="m352,175c-1.16,-1.33 -2.44,-2.57 -3.8,-3.7c0.6,-2.1 1.2,-4 1.7,-6l-15.1,8.4c0,0 -23.9,-16.1 -64,-26.1c-0.1,2.3 -0.2,4.8 -0.2,7.3c30.7,12.7 47.2,34.5 49.1,65.2l22.7,0c4,-17.6 7.2,-33 9.6,-45.1z" fill="#BAE8FF" id="svg_19"/>
  <path d="m282.9,135.9l0.4,0c0.2,-0.2 0.4,-0.3 0.5,-0.6l8.7,-28.1c0.06,-0.12 0.09,-0.25 0.09,-0.38c0.01,-0.13 -0.02,-0.26 -0.07,-0.38c-0.05,-0.12 -0.13,-0.23 -0.23,-0.32c-0.1,-0.08 -0.21,-0.15 -0.34,-0.18c-0.13,-0.04 -0.26,-0.05 -0.39,-0.03c-0.13,0.02 -0.25,0.07 -0.36,0.14c-0.11,0.07 -0.2,0.17 -0.27,0.28c-0.07,0.11 -0.12,0.24 -0.13,0.37l-8.4,27.2c-3.63,-1.55 -7.11,-3.42 -10.4,-5.6l-0.2,0c0,0.6 -0.1,1.3 -0.1,1.9c3.46,2.22 7.1,4.13 10.9,5.7l0.3,0z" fill="black" id="svg_20"/>
  <path d="m320.1,90.7l-35.8,2.6c40,7.6 41.7,8.7 35.8,-2.6z" fill="black" id="svg_21"/>
  <path d="m339.9,195.5l-3.8,-35.5c-0.07,-0.63 -0.38,-1.2 -0.87,-1.61c-0.48,-0.41 -1.1,-0.62 -1.73,-0.59l-3.8,0l-1.7,-3.3c-0.53,-0.91 -1.36,-1.6 -2.35,-1.95c-0.99,-0.35 -2.07,-0.33 -3.05,0.05c-1.01,0.43 -1.83,1.21 -2.3,2.2c-7.5,16.1 -11.2,42.6 -11.9,47.6c-0.02,0.23 0.04,0.47 0.17,0.66c0.13,0.2 0.31,0.35 0.53,0.44l21.6,6.9c0.12,0.06 0.26,0.09 0.39,0.08c0.14,-0.02 0.26,-0.07 0.37,-0.15c0.11,-0.09 0.19,-0.2 0.23,-0.33c0.04,-0.13 0.05,-0.27 0.01,-0.4l-0.8,-10.1l8,-2.5c0.32,-0.09 0.59,-0.29 0.77,-0.57c0.19,-0.27 0.27,-0.6 0.23,-0.93z" fill="#EB459F" id="svg_22"/>
  <path d="m321.4,167.2l-3.3,34.5" id="svg_23" stroke="#D11583" stroke-linecap="round" stroke-miterlimit="10" stroke-width="2"/>
  <path d="m311.15,116.71c1.39,-0.56 1.63,-3.17 0.56,-5.83c-1.08,-2.66 -3.07,-4.37 -4.45,-3.81c-1.38,0.56 -1.63,3.17 -0.56,5.83c1.08,2.66 3.07,4.37 4.45,3.81z" fill="black" id="svg_24"/>
  <path d="m321.46,122.24c1.79,-3.37 1.57,-6.98 -0.48,-8.06c-2.05,-1.09 -5.16,0.76 -6.94,4.13c-1.78,3.37 -1.57,6.98 0.48,8.06c2.05,1.09 5.16,-0.76 6.94,-4.13z" id="svg_25" stroke="white" stroke-miterlimit="10" stroke-width="2"/>
  <path d="m336.19,122.26c1.78,-3.37 1.56,-6.98 -0.48,-8.06c-2.05,-1.09 -5.16,0.76 -6.95,4.13c-1.78,3.37 -1.56,6.98 0.49,8.06c2.05,1.09 5.16,-0.76 6.94,-4.13z" id="svg_26" stroke="white" stroke-miterlimit="10" stroke-width="2"/>
  <path d="m326.07,116.23c0.93,-0.37 0.84,-2.75 -0.2,-5.31c-1.03,-2.56 -2.62,-4.34 -3.54,-3.96c-0.92,0.37 -0.83,2.75 0.2,5.31c1.04,2.56 2.62,4.33 3.54,3.96z" fill="black" id="svg_27"/>
  <path d="m335.6,142.4c-7.72,0.03 -15.21,-2.62 -21.2,-7.5c-6.2,-5.1 -3.7,-5.7 0.2,-5.8c3.9,-0.1 22.6,0.6 28,1.4c5.4,0.8 6.4,11.5 -7,11.9z" fill="#912869" id="svg_28"/>
  <path d="m335.6,142.4c-7.72,0.03 -15.21,-2.62 -21.2,-7.5c-6.2,-5.1 -3.7,-5.7 0.2,-5.8c3.9,-0.1 22.6,0.6 28,1.4c5.4,0.8 6.4,11.5 -7,11.9z" fill="#611B46" id="svg_29"/>
  <path d="m335.2,153.6l-0.4,-3.7c2.83,-0.22 5.58,-1.01 8.1,-2.3" id="svg_30" stroke="black" stroke-linecap="round" stroke-linejoin="round" stroke-width="2"/>
  <path d="m339.3,141.9c-5.4,-5.2 -12.7,-9.1 -26.2,-8.2c11.6,10.7 23.7,8.9 26.2,8.2z" fill="#EB459F" id="svg_31"/>
  <path d="m322.1,118.7l6.1,0" id="svg_32" stroke="white" stroke-miterlimit="10" stroke-width="2"/>
  <path d="m312.9,119.9l-25.8,-10.5c-0.54,-0.21 -1.12,-0.29 -1.7,-0.22c-0.58,0.06 -1.13,0.27 -1.61,0.59c-0.48,0.32 -0.88,0.76 -1.15,1.27c-0.28,0.51 -0.43,1.08 -0.44,1.66l0,0c-0.01,0.68 0.18,1.35 0.56,1.92c0.37,0.57 0.91,1.02 1.54,1.28l1.7,0.8" id="svg_33" stroke="white" stroke-linecap="round" stroke-miterlimit="10" stroke-width="2"/>
  <path d="m307.5,106.8c2.03,0.05 4.06,-0.22 6,-0.8" id="svg_34" stroke="black" stroke-linecap="round" stroke-miterlimit="10" stroke-width="2"/>
  <path d="m322.5,106.8c1.28,0.03 2.55,-0.24 3.7,-0.8" id="svg_35" stroke="black" stroke-linecap="round" stroke-miterlimit="10" stroke-width="2"/>
  <path d="m279.3,94.3c35.7,-0.5 47.8,-4.5 58,-8.2c10.2,-3.7 9.2,-6.6 1.4,-6.3c-7.8,0.3 -34.5,10.5 -59.4,14.5z" fill="#FFF4B3" id="svg_36"/>
  <path d="m270.5,158.1l-0.2,9.8l4.9,-1.9c0,0 26.1,-10.9 32.3,-12.4c6.2,-1.5 12.1,1.4 21,4.8c8.9,3.4 6.6,6.5 3.8,9.5c-2.8,3 -2.7,2.8 -17.4,2.8c-28.1,20.3 -36.7,32.2 -48.2,32.2c-6.9,0 -12.8,-3.1 -17.2,-16.7c-4.4,-13.6 3.8,-19.8 21,-28.1z" fill="#29CC7A" id="svg_37"/>
  <path d="m368.4,169.3l-15,-18.1l-25.6,25.5l18.1,15.1c-0.2,1.7 0,3 0.9,3.9c2.7,2.7 10.6,-0.8 17.7,-7.8c7.1,-7 10.5,-15 7.8,-17.7c-0.9,-0.9 -2.2,-1.1 -3.9,-0.9z" fill="white" id="svg_38"/>
  <path d="m343.97,167.38c7.03,-7.03 11.2,-14.25 9.33,-16.12c-1.87,-1.88 -9.09,2.3 -16.12,9.33c-7.03,7.03 -11.21,14.25 -9.34,16.12c1.88,1.88 9.1,-2.3 16.13,-9.33z" fill="white" id="svg_39"/>
  <path d="m342.23,165.66c6.36,-6.36 10.64,-12.41 9.54,-13.5c-1.09,-1.1 -7.14,3.18 -13.5,9.54c-6.37,6.37 -10.64,12.42 -9.55,13.51c1.09,1.09 7.14,-3.18 13.51,-9.55z" fill="#BAE8FF" id="svg_40"/>
  <path d="m367,161.7c4.3,0.6 6,4.5 4.3,9.7c-0.19,0.55 -0.52,1.05 -0.96,1.44c-0.44,0.38 -0.98,0.65 -1.55,0.77c-0.57,0.12 -1.17,0.09 -1.73,-0.08c-0.56,-0.18 -1.06,-0.5 -1.46,-0.93c-0.99,-1.05 -1.59,-2.41 -1.7,-3.84c-0.11,-1.44 0.28,-2.87 1.1,-4.06l2,-3z" fill="#29CC7A" id="svg_41"/>
  <path d="m359.5,158.7c-0.2,3.7 -2.4,7.4 -4,9.8c-0.43,0.67 -0.63,1.47 -0.55,2.27c0.07,0.79 0.4,1.54 0.95,2.13l0.8,0.7c0.26,0.27 0.57,0.48 0.92,0.62c0.34,0.15 0.71,0.22 1.08,0.22c0.37,0 0.74,-0.07 1.08,-0.22c0.35,-0.14 0.66,-0.35 0.92,-0.62c3.01,-2.75 5.14,-6.34 6.1,-10.3c1.2,-5.4 -2.7,-9.2 -9.5,-7.4l2.2,2.8z" fill="#29CC7A" id="svg_42"/>
  <path d="m279.3,94.3l12.2,-1l29.3,-5.8l-7.3,-7.2l-34.9,0l0.7,14z" fill="#FFF4B3" id="svg_43"/>
  <path d="m338.4,131.2l-7,-0.4c0.8,4.2 2.8,6.4 4.5,5.7c1.7,-0.7 2.3,-4.4 2.5,-5.3z" fill="white" id="svg_44"/>
  <path d="m316.8,130.3c0.9,4.8 2.7,7.3 4.4,6.5c1.7,-0.8 2.1,-4.8 2.4,-6.4l-6.8,-0.1z" fill="white" id="svg_45"/>
  <path d="m609.4,223.5l-461.1,0" id="svg_46" stroke="#2835BD" stroke-linecap="round" stroke-linejoin="round" stroke-width="8"/>
  <path d="m328.4,174.7c0.08,0.21 0.22,0.38 0.4,0.5c0.1,0 0.1,0 0.1,0.1c0,0.1 7.2,-3.5 13.4,-9.7l0,-0.2l-3.9,-3.8l-3.2,-3.3l-4.2,0.2l-8.2,-3.1l-0.3,0.7c3.5,1.2 4.2,13.8 5.9,18.6z" fill="#EB459F" id="svg_47"/>
  <path d="m329.7,157.9c1.69,3.42 3.19,6.92 4.5,10.5c0.07,0.16 0.18,0.3 0.32,0.41c0.14,0.1 0.31,0.17 0.48,0.19l0.3,0c0.21,-0.09 0.39,-0.24 0.49,-0.44c0.11,-0.21 0.15,-0.44 0.11,-0.66c-0.1,-0.3 -2.3,-6.1 -4.3,-10l-1.9,0z" fill="#D11583" id="svg_48"/>
  <path d="m330.9,199.7l-0.2,0l-7.7,2.3c-0.14,0.04 -0.27,0.12 -0.37,0.22c-0.11,0.11 -0.19,0.24 -0.23,0.38c-0.03,0.16 -0.02,0.33 0.04,0.49c0.05,0.16 0.14,0.3 0.26,0.41l6.8,5.9c0.04,0.1 0.11,0.18 0.2,0.23c0.09,0.05 0.2,0.08 0.3,0.07c0.13,0 0.26,-0.02 0.38,-0.07c0.12,-0.05 0.23,-0.13 0.32,-0.23c0.08,-0.09 0.14,-0.2 0.18,-0.31c0.04,-0.12 0.06,-0.24 0.05,-0.36c-0.01,-0.12 -0.04,-0.24 -0.1,-0.35c-0.06,-0.11 -0.14,-0.2 -0.23,-0.28l-5.6,-4.9l6,-1.8l-0.1,-1.7z" fill="#D11583" id="svg_49"/>
  <path d="m270,167.6l-14.1,6.7" id="svg_50" stroke="black" stroke-linecap="round" stroke-linejoin="round" stroke-width="2"/>
  <path d="m324.9,82.8c-15.41,4.13 -31.03,7.43 -46.8,9.9" id="svg_51" stroke="#FFC619" stroke-linecap="round" stroke-miterlimit="10" stroke-width="2"/>
  <path d="m337.4,178.6l10.8,9.9c0.34,0.3 0.77,0.48 1.22,0.51c0.45,0.04 0.9,-0.07 1.28,-0.31c0.24,-0.17 0.45,-0.4 0.59,-0.66c0.15,-0.26 0.23,-0.54 0.25,-0.84c0.02,-0.3 -0.03,-0.6 -0.14,-0.87c-0.11,-0.28 -0.28,-0.53 -0.5,-0.73l-10.5,-10.1c-0.32,-0.29 -0.72,-0.48 -1.15,-0.53c-0.43,-0.05 -0.87,0.03 -1.25,0.23l-0.3,0.2c-0.27,0.16 -0.49,0.38 -0.66,0.65c-0.16,0.26 -0.27,0.56 -0.29,0.87c-0.03,0.32 0.01,0.63 0.12,0.92c0.12,0.29 0.3,0.55 0.53,0.76z" fill="#BAE8FF" id="svg_52"/>
  <path d="m364.5,170.5c1.82,-2.42 2.97,-5.29 3.3,-8.3" id="svg_53" stroke="black" stroke-linecap="round" stroke-linejoin="round" stroke-width="2"/>
  <path d="m453.19,32.23c0.91,-4.32 -1.94,-8.58 -6.37,-9.52c-4.44,-0.93 -8.77,1.82 -9.68,6.14c-0.91,4.32 1.94,8.59 6.38,9.52c4.43,0.93 8.76,-1.81 9.67,-6.14z" fill="#2A39D4" id="svg_54"/>
  <path d="m506.7,106.5c7.3,0.4 16.1,3.4 27.1,15.6c6.2,-6.2 9.2,-4.5 17.5,2.6c8.3,7.1 26.1,20.6 30.5,25.1c4.4,4.5 7.7,14.2 -4.3,21.5c-12,7.3 -33.3,-6.1 -44.5,-13.9c-11.2,-7.8 -26.3,-16.9 -26.3,-16.9l0,-34z" fill="#2331B5" id="svg_55"/>
  <path d="m548,121.9c2.91,4.79 5.35,9.85 7.3,15.1c2.3,7.2 -0.6,11.4 -6.5,16.3c-5.9,4.9 -8.3,3.8 -11.4,1.3c-0.19,-0.11 -0.41,-0.14 -0.62,-0.1c-0.21,0.04 -0.4,0.16 -0.53,0.33c-0.14,0.17 -0.21,0.38 -0.2,0.59c0.01,0.22 0.1,0.42 0.25,0.58c1.58,1.39 3.59,2.2 5.7,2.3c2.5,0 5,-1.2 8,-3.7c5.1,-4.3 9.9,-9.2 6.9,-18.2c-1.11,-3.24 -2.48,-6.38 -4.1,-9.4c-0.63,-1.21 -1.48,-2.3 -2.5,-3.2l-2.3,-1.9z" fill="#3442D9" id="svg_56"/>
  <path d="m532.9,151.8c5.4,5.2 18.3,14.4 18.3,14.4" id="svg_57" stroke="black" stroke-linecap="round" stroke-miterlimit="10" stroke-width="2"/>
  <path d="m479.88,105.22c25.87,-7.36 41.45,-32.24 34.81,-55.56c-6.64,-23.32 -33,-36.25 -58.86,-28.88c-25.87,7.37 -41.45,32.25 -34.81,55.57c6.64,23.31 32.99,36.24 58.86,28.87z" fill="#FF78B9" id="svg_58"/>
  <path d="m433.8,58.2c0,9.6 4.6,18.1 10.3,19c5.7,0.9 7.1,-4.1 7.3,-13.4c0,-2.4 0.1,-4.8 0.3,-7.3c0.6,-8.6 -2.5,-13.3 -7.6,-14.1c-5.1,-0.8 -10.3,6.2 -10.3,15.8z" fill="white" id="svg_59"/>
  <path d="m476.2,58.8c-0.99,-1.29 -1.58,-2.84 -1.68,-4.46c-0.11,-1.62 0.27,-3.23 1.08,-4.64c8,-13.6 15.3,-14.1 20.5,-13.8c5.2,0.3 9.2,5.2 4.9,17.6c6.1,6.6 3.6,12.7 -5.1,13.5c-8.7,0.8 -13.4,0.1 -19.7,-8.2z" fill="#D11583" id="svg_60"/>
  <path d="m533.4,192.1c1.2,-32.8 -9.3,-37 -10.3,-46.8c-1,-9.8 -2,-23 -12.8,-37.2c0,0 1.3,-13.3 2,-22.2c0.02,-0.35 -0.04,-0.7 -0.17,-1.02c-0.14,-0.33 -0.34,-0.62 -0.6,-0.86c-0.26,-0.24 -0.56,-0.42 -0.9,-0.52c-0.33,-0.11 -0.68,-0.14 -1.03,-0.1c-7.01,1.12 -14.11,1.55 -21.2,1.3c-12.2,-0.4 -28.7,-1.6 -46.3,15.5l5.7,8l-0.4,0.7c-0.28,0.48 -0.46,1.02 -0.51,1.58c-0.05,0.55 0.03,1.11 0.22,1.64c0.19,0.53 0.49,1 0.89,1.4c0.39,0.39 0.87,0.69 1.4,0.88l1.1,0.4c0,0 -16.1,9.7 -11.3,31.6c4.8,21.9 -0.3,43.1 7.8,49.6c1.64,1.3 3.58,2.16 5.65,2.49c2.07,0.34 4.18,0.13 6.15,-0.59l37.1,19.8c13.5,14.9 32.7,31.6 32.7,31.6l-14.8,35.3l15.6,39.3c13.3,-32.6 30.8,-64.6 33.9,-79.4c3.1,-14.8 -6.9,-23.5 -29.9,-52.4z" fill="#2331B5" id="svg_61"/>
  <path d="m518.8,303.8c7.4,-22.9 15.7,-43.6 18.2,-49.6c0.21,-0.53 0.26,-1.11 0.13,-1.66c-0.12,-0.55 -0.41,-1.05 -0.83,-1.44c-21.6,-20.7 -26.7,-27.8 -26.7,-27.8" id="svg_62" stroke="#3442D9" stroke-miterlimit="10" stroke-width="2"/>
  <path d="m461.7,178l-13.4,-9.1c0,0 8.1,-11.1 12.6,-17.8l1.1,-1.7c0.04,-0.1 0.11,-0.19 0.19,-0.27c0.07,-0.07 0.17,-0.13 0.27,-0.17c0.1,-0.04 0.22,-0.05 0.33,-0.05c0.1,0.01 0.21,0.04 0.31,0.09c0.18,0.09 0.33,0.23 0.42,0.41c0.09,0.18 0.12,0.39 0.08,0.59c-2.9,17.7 -1.9,28 -1.9,28z" fill="black" id="svg_63"/>
  <path d="m512.1,87.6c-7.1,2.4 -16.5,2.3 -27.7,2c-11.2,-0.3 -22.5,-0.6 -41,12.4l3,4.3c17.1,-12.1 26.3,-11.8 37.9,-11.5c11.6,0.3 19.8,0.4 27.4,-1.6c0.1,-1.9 0.3,-3.8 0.4,-5.6z" fill="#3442D9" id="svg_64"/>
  <path d="m506.7,190.5c0.22,0 0.44,-0.08 0.6,-0.23c0.17,-0.14 0.27,-0.35 0.3,-0.57c0.2,-16.1 -5.9,-32.5 -8.5,-38.8c-2.73,-6.49 -4.39,-13.38 -4.9,-20.4c-0.8,-9.1 -2.7,-16.2 -3.9,-19l3.4,-26.8l-1.8,0l-3.4,27.1l0,0.2c1.1,2.4 3.1,9.5 3.9,18.7c0.53,7.18 2.18,14.23 4.9,20.9c2.7,6.2 8.7,22.3 8.5,38c0,0.24 0.09,0.47 0.26,0.64c0.17,0.17 0.4,0.26 0.64,0.26z" fill="black" id="svg_65"/>
  <path d="m564.5,346.5c-0.36,-0.53 -0.83,-0.97 -1.39,-1.28c-0.55,-0.31 -1.17,-0.49 -1.81,-0.52c0.6,-3.6 -0.1,-6.6 -4.8,-7.7c-5.43,-1.17 -11.06,-1 -16.4,0.5c-9.2,-23.6 -27.4,-85.8 -40.1,-131.2l-41.2,-8.4c-0.4,11.3 7,36.2 12.4,57.6c5.4,21.4 17.3,66.2 20.6,82.4c2,9.8 4.9,21.5 4.9,21.5l38.2,0c11.2,0 25.6,-4.4 28.4,-6.6c2.8,-2.2 2.2,-4.5 1.2,-6.3z" fill="#2331B5" id="svg_66"/>
  <path d="m503.2,336.3c-11.8,-37.2 -29,-87.2 -39.5,-138" id="svg_67" stroke="#3442D9" stroke-miterlimit="10" stroke-width="2"/>
  <path d="m483.6,192.1c0.2,-2.9 -3.8,-13.8 -8.6,-21.7c-4.8,-7.9 -7.2,-13.5 -11.7,-10.9c-4.5,2.6 -15,9.4 -15,9.4c0,0 8.1,-11.1 12.6,-17.8c9.7,-14.6 6.3,-34.7 -10.4,-36.3c-13.7,7.6 -15.8,14.1 -28.8,37c-13,22.9 -20.7,47.3 -6.7,57.4c14,10.1 27.5,3.1 52.7,-8c10.9,-4.7 15.8,-6.1 15.9,-9.1z" fill="#2331B5" id="svg_68"/>
  <path d="m467.9,199.7c-2.8,-1.3 -5.3,-5.5 -8.3,-14.1c-5,-14.5 -6.3,-18.9 -3.2,-21.9l-1.9,1.2c-0.45,0.27 -0.82,0.65 -1.09,1.11c-0.26,0.45 -0.4,0.96 -0.41,1.49c-0.1,3.8 1.8,9.4 5,18.7c2,5.8 3.8,9.7 5.7,12.1c0.72,1.02 1.78,1.75 2.98,2.08c1.2,0.33 2.48,0.23 3.62,-0.28c-0.82,0.08 -1.65,-0.06 -2.4,-0.4z" fill="#3442D9" id="svg_69"/>
  <path d="m475,170.4c-4.7,-7.9 -7.2,-13.5 -11.7,-10.9c-4.5,2.6 -27.5,17.1 -27.5,17.1" id="svg_70" stroke="black" stroke-linecap="round" stroke-miterlimit="10" stroke-width="2"/>
  <path d="m526.7,112.9c-3.09,-20.78 -4.26,-41.8 -3.5,-62.8c0.02,-0.67 -0.11,-1.34 -0.39,-1.95c-0.29,-0.6 -0.7,-1.14 -1.23,-1.56c-0.52,-0.42 -1.14,-0.7 -1.8,-0.84c-0.65,-0.14 -1.33,-0.12 -1.98,0.05l-24.9,7" id="svg_71" stroke="#66BCFF" stroke-linecap="round" stroke-miterlimit="10" stroke-width="4"/>
  <path d="m510.7,114.6c2.4,4.6 6.7,12.8 7.6,15.5c0.3,4.2 0.1,11.4 0.1,13.6c0.01,0.2 0.08,0.4 0.21,0.56c0.12,0.16 0.29,0.28 0.49,0.34c6.8,1 9.7,1.1 12.5,0.8c2.8,-0.3 6.7,-1.6 9.4,-2.4c0.29,-0.11 0.52,-0.33 0.65,-0.61c0.13,-0.28 0.15,-0.6 0.05,-0.89c-2.5,-8.2 -4.2,-14.1 -4.2,-14.1c-0.5,-10.2 -0.6,-18.3 -0.6,-21c0,-0.26 -0.11,-0.52 -0.29,-0.71c-0.19,-0.19 -0.44,-0.29 -0.71,-0.29c-9.3,-0.6 -12.5,-0.6 -15.9,-0.4c-3.4,0.2 -4.5,2.2 -9.2,7.8c-0.21,0.25 -0.33,0.56 -0.35,0.88c-0.02,0.33 0.07,0.65 0.25,0.92z" fill="white" id="svg_72"/>
  <path d="m540.7,142.2c0,0 1.1,0.4 0.3,0.8c0.29,-0.11 0.52,-0.33 0.65,-0.61c0.13,-0.28 0.15,-0.6 0.05,-0.89c-2.5,-8.2 -4.2,-14.1 -4.2,-14.1c-0.5,-10.2 -0.6,-18.3 -0.6,-21c0,-0.26 -0.11,-0.52 -0.29,-0.71c-0.19,-0.19 -0.44,-0.29 -0.71,-0.29c-9.3,-0.6 -12.5,-0.6 -15.9,-0.4c-0.72,0.05 -1.43,0.22 -2.1,0.5l8.8,18.6l-0.6,17.1l14.6,1z" fill="#FFE75C" id="svg_73"/>
  <path d="m527.2,141.7c1.7,6.1 3.2,10.4 7,11.2c3.8,0.8 8.3,-3.1 14.1,-8.9c5.8,-5.8 3.8,-10.7 1.3,-15.3c-2.5,-4.6 -2.9,-10.4 -6,-12.8c-3.84,-2.82 -7.96,-5.23 -12.3,-7.2c-3.5,-1.5 -5.6,-1.5 -10.9,4.5c-5.3,6 -8.4,9.5 -7.5,11.9c0.9,2.4 2.4,5 2.4,5c-2.4,2.4 -2.4,4.4 -1.4,6.9c1,2.5 1.4,4.8 6.5,4.8l6.8,-0.1z" fill="#FF78B9" id="svg_74"/>
  <path d="m515.5,129l14,-13.2" id="svg_75" stroke="black" stroke-linecap="round" stroke-miterlimit="10" stroke-width="2"/>
  <path d="m528.3,134.2c-3.15,1.98 -6.42,3.75 -9.8,5.3c-0.1,1.9 -0.1,3.4 -0.1,4.2c0.01,0.2 0.08,0.4 0.21,0.56c0.12,0.16 0.29,0.28 0.49,0.34c6.8,1 9.7,1.1 12.5,0.8c2.8,-0.3 6.7,-1.6 9.4,-2.4c0.29,-0.11 0.52,-0.33 0.65,-0.61c0.13,-0.28 0.15,-0.6 0.05,-0.89l-0.6,-2c-4.46,-1.25 -8.76,-3.03 -12.8,-5.3z" fill="white" id="svg_76"/>
  <path d="m541.1,139.5c-4.46,-1.25 -8.76,-3.03 -12.8,-5.3l-2,1.3l-0.2,5.5c0.02,0.07 0.06,0.13 0.12,0.18c0.05,0.06 0.11,0.1 0.18,0.12l14.3,0.9c0,0 1.1,0.4 0.3,0.8c0.3,-0.11 0.55,-0.32 0.7,-0.6c0,-0.1 0.1,-0.3 0.1,-0.4c0.01,-0.17 -0.02,-0.35 -0.1,-0.5l-0.6,-1.9l0,-0.1z" fill="#FFE75C" id="svg_77"/>
  <path d="m466.8,162c3.14,-3.66 5.46,-7.96 6.8,-12.6c1,-3 2.1,-7.3 2.5,-8.9c0.4,-1.6 2.3,-2.5 4.6,-2c2.3,0.5 3.3,0.9 2.9,5c-0.4,4.1 -1.3,13.8 -1.3,13.8l-15.5,4.7z" fill="#FF78B9" id="svg_78"/>
  <path d="m512.8,164.4c-1.5,-4.1 -2.2,-6.2 -3.5,-7.9c-1.3,-1.7 -2.5,-2 -8.3,-2.3c-2.3,-0.1 -6.7,0 -9.6,0.1c5.7,-1.5 11.8,-2.8 13.1,-3.2c1.3,-0.4 3.9,-0.8 3,-3.3c-0.9,-2.5 -1.7,-3.1 -3.1,-3.1c-3.59,-0.07 -7.17,0.23 -10.7,0.9c-5.15,1.01 -10.2,2.45 -15.1,4.3c-2.9,1.2 -6.6,6.6 -11.8,12.1c2.3,8.1 7.8,20.5 13.4,26.4c7.4,-2.9 11.8,-9.3 13.6,-11.7c9.3,-1.6 12.5,-0.6 17.7,0.1c3.2,0.4 3.5,-1.9 3.7,-3c0.2,-1.1 -1.1,-5.6 -2.4,-9.4z" fill="#FF78B9" id="svg_79"/>
  <path d="m436.8,58.3c-0.3,4.2 1.1,7.7 3.1,7.9c2,0.2 3,-1.4 3.1,-5.3c0.05,-1.65 0.25,-3.29 0.6,-4.9c0.7,-3.5 -0.8,-4.8 -2.5,-4.9c-1.7,-0.1 -4,3.1 -4.3,7.2z" fill="black" id="svg_80"/>
  <path d="m471.1,8.9c2.07,-0.43 4.23,-0.09 6.08,0.96c1.84,1.05 3.23,2.74 3.92,4.74c1.5,4.7 2.8,11.8 -5.2,13.1c-3.4,0.5 -6.9,-1 -12.3,-5.2c-3.9,-3.1 -8.1,-4.2 -17.2,0.5c-4.9,-3.4 -2.5,-12.1 10.8,-7.7c-5.8,-7.5 -4.1,-12.7 0.1,-14.2c4.2,-1.5 10.5,-0.7 13.8,7.8z" fill="#2A39D4" id="svg_81"/>
  <path d="m471.1,23.3c-2.9,-3.6 -5.3,-8.4 -7.3,-12.5c-2,-4.1 -4,-8.4 -6.2,-9.7l-0.3,0c-0.79,0.27 -1.5,0.72 -2.1,1.3l0.7,-0.2c1.9,0.2 4,4.6 6.3,9.3c2.3,4.7 4.5,9.1 7.5,12.9c1.01,1.19 2.15,2.27 3.4,3.2c0.92,0.18 1.87,0.22 2.8,0.1l0.1,0c-1.84,-1.22 -3.49,-2.7 -4.9,-4.4z" fill="black" id="svg_82"/>
  <path d="m481.2,24.7c-0.43,0.63 -0.97,1.17 -1.6,1.6c-0.47,-6.64 -3.44,-12.85 -8.3,-17.4c0.75,-0.18 1.53,-0.22 2.3,-0.1c4.18,4.34 6.85,9.92 7.6,15.9z" fill="black" id="svg_83"/>
  <path d="m491.4,335.7c0.1,0.8 0.3,1.5 0.4,2.2c2,9.8 4.9,21.5 4.9,21.5l38.2,0c11.2,0 25.6,-4.4 28.4,-6.6c2.8,-2.2 2.2,-4.5 1.2,-6.3c-0.36,-0.53 -0.83,-0.97 -1.39,-1.28c-0.55,-0.31 -1.17,-0.49 -1.81,-0.52c0.6,-3.6 -0.1,-6.6 -4.8,-7.7c-5.43,-1.17 -11.06,-1 -16.4,0.5c-1.4,-3.7 -3.1,-8.3 -4.9,-13.6c-16.8,-0.3 -33.9,-1.7 -43.8,11.8z" fill="#45AAF7" id="svg_84"/>
  <path d="m491.4,335.7c0.1,0.8 0.3,1.5 0.4,2.2c2,9.8 4.9,21.5 4.9,21.5l38.2,0c11.2,0 25.6,-4.4 28.4,-6.6c2.8,-2.2 2.2,-4.5 1.2,-6.3c-0.36,-0.53 -0.83,-0.97 -1.39,-1.28c-0.55,-0.31 -1.17,-0.49 -1.81,-0.52c0.6,-3.6 -0.1,-6.6 -4.8,-7.7c-5.43,-1.17 -11.06,-1 -16.4,0.5c-1.4,-3.7 -3.1,-8.3 -4.9,-13.6c-16.8,-0.3 -33.9,-1.7 -43.8,11.8z" fill="#45AAF7" id="svg_85"/>
  <path d="m540.1,337.5l-1.3,0.3l-0.2,0l-10.9,2.2c-0.18,-0.23 -0.28,-0.51 -0.3,-0.8c-0.82,-2.83 -1.26,-5.76 -1.3,-8.7c-0.1,-6.1 -3.3,-6.7 -8.8,-6.6l0.3,-0.7c0.74,-1.94 2.06,-3.6 3.77,-4.76c1.72,-1.17 3.76,-1.77 5.83,-1.74l9.1,0c0.53,0.01 1.06,0.13 1.54,0.36c0.48,0.23 0.9,0.56 1.24,0.96c0.35,0.41 0.6,0.89 0.74,1.4c0.14,0.52 0.17,1.06 0.08,1.58c-1.1,4.7 -1.4,10.5 -0.3,14.8c0.11,0.58 0.27,1.15 0.5,1.7z" fill="#8CD9FF" id="svg_86"/>
  <path d="m501.5,343.6c-1.36,-0.46 -2.8,-0.63 -4.22,-0.51c-1.43,0.12 -2.82,0.53 -4.08,1.21c0.09,0.61 0.22,1.21 0.4,1.8c1.08,-0.67 2.29,-1.1 3.55,-1.26c1.26,-0.15 2.54,-0.03 3.75,0.36c5.6,1.9 9.7,9.2 11.8,14.2l1.9,0c-2.2,-5.2 -6.6,-13.6 -13.1,-15.8z" fill="#5865F2" id="svg_87"/>
  <path d="m564.2,351.9l-0.9,0.9c-2.8,2.2 -17.2,6.6 -28.4,6.6l-22.8,0l0,-0.4c26.2,-0.4 44,-11.3 50.1,-11.3c2,0 3.2,3 2,4.2z" fill="black" id="svg_88"/>
  <path d="m539.1,138.1c1.42,1.91 3.48,3.26 5.8,3.8" id="svg_89" stroke="black" stroke-linecap="round" stroke-miterlimit="10" stroke-width="2"/>
  <path d="m495.2,130.4c-1,0.01 -1.96,-0.36 -2.7,-1.03c-0.74,-0.66 -1.2,-1.58 -1.3,-2.57l-0.8,-9.1l1.8,0l5.3,8.7c0.22,0.41 0.34,0.86 0.33,1.33c0,0.46 -0.13,0.92 -0.36,1.32c-0.23,0.4 -0.56,0.73 -0.96,0.97c-0.39,0.24 -0.85,0.37 -1.31,0.38z" fill="#FFE75C" id="svg_90"/>
  <path d="m450.5,114.8l9.8,0" id="svg_91" stroke="black" stroke-linecap="round" stroke-miterlimit="10" stroke-width="2"/>
  <path d="m506.2,228.4c-1.2,-4.3 -3,-10.4 -3,-10.4c8.04,-5.24 15.69,-11.06 22.9,-17.4c0,0 -8.3,18.4 -12,35.5l-7.9,-7.7z" fill="black" id="svg_92"/>
  <path d="m528.6,249.3l9.7,-0.4" id="svg_93" stroke="black" stroke-linecap="round" stroke-miterlimit="10" stroke-width="2"/>
  <path d="m540.1,337.5l-1.3,0.3l-0.2,0c-4.35,1.03 -8.62,2.33 -12.8,3.9l-0.3,0c-0.18,-0.01 -0.35,-0.07 -0.49,-0.18c-0.14,-0.1 -0.25,-0.25 -0.31,-0.42c-0.05,-0.1 -0.07,-0.22 -0.07,-0.33c0,-0.12 0.02,-0.23 0.07,-0.33c0.05,-0.11 0.11,-0.2 0.2,-0.28c0.09,-0.07 0.19,-0.13 0.3,-0.16l2.2,-0.9c3.99,-1.39 8.06,-2.52 12.2,-3.4c0.1,0.62 0.27,1.22 0.5,1.8z" fill="black" id="svg_94"/>
  <path d="m513.1,165.2l-0.3,-0.8l-0.4,-1c-8.7,-0.9 -17.8,-1.5 -26.7,-0.6c-0.12,0.01 -0.23,0.05 -0.34,0.11c-0.1,0.05 -0.19,0.13 -0.27,0.22c-0.07,0.1 -0.13,0.2 -0.16,0.32c-0.03,0.11 -0.04,0.23 -0.03,0.35c0.01,0.12 0.05,0.23 0.11,0.34c0.05,0.1 0.13,0.19 0.22,0.27c0.1,0.07 0.2,0.13 0.32,0.16c0.11,0.03 0.23,0.04 0.35,0.03c9,-1 18.3,-0.3 27.2,0.6z" fill="black" id="svg_95"/>
  <path d="m445.2,53.8l-5.8,2.8l8.1,3.7l-2.3,-6.5z" fill="white" id="svg_96"/>
  <path d="m564.2,351.9c0.6,-0.8 -0.1,-1.3 -2,-1.3c-6.1,0 -23.9,8.4 -50.1,8.8l-15.4,0l-1.1,-4.4c12,0 25.1,-0.2 37.3,-4.1c12.2,-3.9 20.3,-7.2 28.4,-6.2c0.64,0.03 1.26,0.21 1.81,0.52c0.56,0.31 1.03,0.75 1.39,1.28c0.54,0.81 0.81,1.78 0.75,2.75c-0.05,0.97 -0.42,1.9 -1.05,2.65z" fill="white" id="svg_97"/>
  <path d="m532.9,319.9l1.2,0c2.8,0 4.7,0.1 5.3,0.8c0.6,0.7 0.3,1 0.1,2c0.08,-0.58 0.22,-1.14 0.4,-1.7c0.09,-0.62 -0.08,-1.25 -0.45,-1.76c-0.37,-0.5 -0.93,-0.84 -1.55,-0.94l-5,0c-4.6,0 -9.8,0 -12.5,5.9c0.61,-0.02 1.22,0.09 1.8,0.3c2.3,-4.7 6.4,-4.6 10.7,-4.6z" fill="#3442D9" id="svg_98"/>
  <path d="m495.2,48.3c-1.3,2.1 -3.6,4.5 -8.7,5.5c7,-0.8 10,3.1 10,3.1" id="svg_99" stroke="black" stroke-linecap="round" stroke-linejoin="round" stroke-width="2"/>
  <path d="m364.9,359.4l-66.5,0l0,-14c-0.01,-3.62 1.39,-7.1 3.9,-9.7l6.6,-6.4c0.85,-0.8 1.52,-1.76 1.98,-2.82c0.47,-1.07 0.71,-2.22 0.72,-3.38l0,-16c0.01,-3.2 1.1,-6.31 3.1,-8.82c1.99,-2.5 4.78,-4.26 7.9,-4.98c10.7,-2.7 21.8,-3.2 30.9,-1.4c3.22,0.67 6.11,2.42 8.19,4.97c2.08,2.55 3.21,5.74 3.21,9.03l0,53.5z" fill="#45AAF7" id="svg_100"/>
  <path d="m315.5,332.6l0.4,0c0.16,0.01 0.31,-0.02 0.45,-0.09c0.14,-0.07 0.26,-0.18 0.35,-0.31c3,-5.8 3,-14.8 3,-24.4c0,-9.6 0.9,-13.2 7.3,-15.6l-3.4,0.7c-0.88,0.2 -1.7,0.59 -2.41,1.14c-0.71,0.55 -1.28,1.26 -1.69,2.06c-1.4,2.8 -1.6,6.5 -1.6,11.7c0,9.4 0,18.2 -2.8,23.6c-0.07,0.1 -0.11,0.22 -0.13,0.34c-0.01,0.12 0,0.24 0.04,0.36c0.03,0.11 0.1,0.22 0.18,0.31c0.09,0.08 0.19,0.15 0.31,0.19z" fill="#BAE8FF" id="svg_101"/>
  <path d="m364.9,305.9c0,-3.3 -1.15,-6.5 -3.25,-9.05c-2.1,-2.55 -5.01,-4.3 -8.25,-4.95c-5.35,-0.92 -10.78,-1.22 -16.2,-0.9c-12.8,0.9 -10.9,9 -10.9,20.8l0,10.1c0.01,3.37 -0.89,6.69 -2.6,9.6c-1.9,3.1 -2.4,6.9 -2.4,14.3l0,13.6l43.6,0l0,-53.5z" fill="#3F99F2" id="svg_102"/>
  <path d="m348.9,343.3c-0.6,-17.4 -8.5,-32.6 -16.5,-47.1c-0.2,-0.29 -0.32,-0.63 -0.35,-0.98c-0.02,-0.35 0.06,-0.7 0.22,-1.02c0.17,-0.31 0.42,-0.57 0.72,-0.74c0.31,-0.18 0.66,-0.27 1.01,-0.26l2,0c0.42,0.02 0.83,0.14 1.19,0.35c0.37,0.21 0.68,0.5 0.91,0.85c8.2,15.1 16.8,30.8 17.4,48.9c0.3,9.1 -6.6,16.1 -15.8,16.1l-6.6,0c9.2,0 16.1,-7 15.8,-16.1z" fill="#3543DE" id="svg_103"/>
  <path d="m367.7,343.3c-0.6,-17.4 -8.6,-32.6 -16.5,-47.1c-0.2,-0.29 -0.32,-0.63 -0.35,-0.98c-0.02,-0.35 0.06,-0.7 0.22,-1.02c0.17,-0.31 0.42,-0.57 0.72,-0.74c0.31,-0.18 0.66,-0.27 1.01,-0.26l2,0c0.41,0.01 0.81,0.13 1.16,0.34c0.35,0.21 0.64,0.51 0.84,0.86c8.3,15.1 16.8,30.8 17.5,48.9c0.1,2.12 -0.24,4.23 -1,6.2c-0.75,1.98 -1.91,3.78 -3.39,5.29c-1.48,1.51 -3.26,2.7 -5.23,3.5c-1.96,0.79 -4.06,1.17 -6.18,1.11l-6.6,0c2.12,0.06 4.22,-0.32 6.18,-1.11c1.97,-0.8 3.74,-1.99 5.23,-3.5c1.48,-1.51 2.64,-3.31 3.39,-5.29c0.76,-1.97 1.1,-4.08 1,-6.2z" fill="#3543DE" id="svg_104"/>
  <path d="m351.4,316.3l20.3,3.5c1.6,4.2 2.4,7 2.6,9.7c0.2,2.7 -2.4,4.2 -6.4,5.8c-2.87,1.2 -5.51,2.89 -7.8,5c-5.8,5.1 -10.7,8.2 -19.2,8.2c-1.7,0 -2.9,0.1 -3.9,-1c-1.06,-1.2 -1.69,-2.72 -1.78,-4.31c-0.09,-1.6 0.36,-3.18 1.28,-4.49c1.03,-1.39 2.28,-2.61 3.7,-3.6c3.02,-1.96 5.58,-4.56 7.48,-7.62c1.9,-3.06 3.1,-6.5 3.52,-10.08c0.1,-0.5 0.1,-0.8 0.2,-1.1z" fill="#DE3A93" id="svg_105"/>
  <path d="m367.9,335.3c1.69,-0.63 3.27,-1.51 4.7,-2.6c1.9,-1.8 1.1,-3.5 -3,-3.4c-4.1,0.1 -8.4,3.3 -17,8.6c-8.6,5.3 -21.4,10.6 -11.7,10.6c9.7,0 13.4,-3.1 19.2,-8.2c2.29,-2.11 4.93,-3.8 7.8,-5z" fill="black" id="svg_106"/>
  <path d="m349.2,310.2c-1.5,0.3 -1.3,2 -0.5,3.7c-1.6,3 -0.6,4.2 2.2,5.4c5.66,1.92 11.63,2.74 17.6,2.4c6.1,-0.6 5.7,-2.6 5.1,-4.6c2.1,-1.8 1.8,-3.9 -0.3,-4.8c-2.1,-0.9 -13.4,-4.4 -24.1,-2.1z" fill="#66BCFF" id="svg_107"/>
  <path d="m394.3,205.8l-26.2,0l0,14.29l26.2,0l0,-14.29z" fill="white" id="svg_108"/>
  <path d="m447.6,206.1c0.5,2.03 0.53,4.15 0.09,6.2c-0.44,2.04 -1.34,3.96 -2.63,5.61c-1.29,1.65 -2.94,2.98 -4.82,3.9c-1.88,0.91 -3.95,1.39 -6.04,1.39l-28.6,0l-13.4,7.5l0,-0.4c-6.1,0 -9.6,-2 -6.9,-24.4c-1.2,-6.3 -6.8,-31.1 -9.9,-49.6c-2.8,-16.9 3.5,-23.1 20.9,-32.9c7.4,-22 26.6,-20.7 30.3,-7.5c3.7,13.2 15.9,69.3 21,90.2z" fill="#66BCFF" id="svg_109"/>
  <path d="m393.9,237.8l-4.6,0.8c-0.22,0.04 -0.44,0.14 -0.62,0.27c-0.19,0.13 -0.34,0.31 -0.46,0.51c-0.11,0.19 -0.18,0.42 -0.2,0.65c-0.02,0.22 0,0.45 0.08,0.67l1,2.5c-13.9,0.8 -26,2 -30.8,6.2c-4.8,4.2 -4.8,10.6 -7,29.7c-2.2,19.1 -5.8,30.5 0,33.1c5.89,2.53 12.33,3.49 18.7,2.8c6.4,-0.6 7,-3.9 8.3,-13.8c1.3,-9.9 4.4,-31.9 4.4,-31.9l50.5,0c12.5,0 19.9,-8.2 21.6,-15.2c1.2,-5 -0.4,-16.8 -3.3,-30.8l-45.9,0l-13.4,7.5l1,4.3l0.7,2.7z" fill="#3442D9" id="svg_110"/>
  <path d="m436,223.5c5,25 6,43.8 -13,52.4" id="svg_111" stroke="#2330BF" stroke-miterlimit="10" stroke-width="2"/>
  <path d="m396.7,210.9c0,0 2.1,12.3 5,26.9c3.3,16.8 2.4,16.2 -20.5,17.7c-20.1,1.3 -18.3,0.3 -22.5,23.2c-1.6,9 -4.4,25.3 -3.6,34.3c0,0 -0.9,5.3 -0.7,6.4" id="svg_112" stroke="#2467D4" stroke-linecap="round" stroke-linejoin="round" stroke-width="2"/>
  <path d="m382.7,269.3c-11.1,-1.7 -16.5,-11.7 -16.5,-11.7" id="svg_113" stroke="black" stroke-linecap="round" stroke-linejoin="round" stroke-width="2"/>
  <path d="m382.7,269.3c-2.27,-1.34 -4.26,-3.11 -5.83,-5.23c-1.58,-2.11 -2.73,-4.51 -3.37,-7.07" id="svg_114" stroke="black" stroke-linecap="round" stroke-linejoin="round" stroke-width="2"/>
  <path d="m447.6,206.1c-2.6,-10.8 -7.2,-30.8 -11.5,-49.5l-22.4,-1.7l-17.3,12.2l-10,13.4l-5.1,6.9c1.8,8.6 3.3,15.6 3.9,18.6c-2.7,22.4 0.8,24.4 6.9,24.4l17.7,-7.5l41,-2.9c-1,-4.5 -2.1,-9.2 -3.2,-13.9z" fill="#EB459F" id="svg_115"/>
  <path d="m401.77,194.84c1.26,-7.46 0.61,-13.79 -1.46,-14.14c-2.07,-0.35 -4.77,5.41 -6.03,12.87c-1.27,7.46 -0.61,13.8 1.46,14.15c2.07,0.35 4.77,-5.42 6.03,-12.88z" fill="black" id="svg_116"/>
  <path d="m388.7,176.3c1,-1.8 2.1,-3.6 3.2,-5.2c11.3,-16.3 21.9,-20.7 32.1,-20.7l12.7,0c0.19,0.01 0.37,0.06 0.54,0.14c0.17,0.09 0.31,0.22 0.42,0.38c0.1,0.16 0.17,0.33 0.2,0.52c0.02,0.19 0,0.38 -0.06,0.56l-1.7,4.6c-19.5,0 -26.4,-0.6 -42.6,16.4l-7.1,7.5l2.3,-4.2z" fill="#D11583" id="svg_117"/>
  <path d="m450.8,220l-33.1,0c-7.4,0 -16.5,-0.4 -25.6,10.4l1.1,4.7c5.3,-5.1 10.2,-7.3 20.8,-7.3l38.4,0l-1.6,-7.8z" fill="black" id="svg_118"/>
  <path d="m393.5,173.6c-6.7,1.2 -12,4.7 -15,10.9c-0.85,1.72 -2.08,3.22 -3.6,4.4l-18,13.1c-2.02,1.44 -3.43,3.58 -3.95,6c-0.52,2.43 -0.11,4.96 1.15,7.1c0.88,1.5 2.14,2.74 3.64,3.6c1.51,0.86 3.22,1.31 4.96,1.3l7.5,0c15.6,-8.7 22.8,-14.6 26.5,-18c3.7,-3.4 7.8,-9.5 7.1,-16.5c-0.7,-7 -2.7,-13.3 -10.3,-11.9z" fill="white" id="svg_119"/>
  <path d="m399.1,121.9c-2.4,-4 -5.6,-9.3 -6.8,-11.8c-1.2,-2.5 -4.1,-1.9 0,9.3c-10,-3.8 -12.1,-2.4 -12.6,-1c-0.5,1.4 1.7,2.1 5.9,4.5c4.2,2.4 8.7,5.3 8.7,5.3l4.8,-6.3z" fill="#66BCFF" id="svg_120"/>
  <path d="m409.5,122.2c1.7,-2.1 2.3,-4.4 1.3,-5.2c-1,-0.8 -2.1,-0.4 -3.6,1.6c-0.65,0.81 -1.35,1.58 -2.1,2.3c-1.7,1.6 -1.3,2.8 -0.5,3.5c0.8,0.7 3.2,-0.1 4.9,-2.2z" fill="black" id="svg_121"/>
  <path d="m426.5,116c0,0 -11.9,-5.4 -17,-8.7c-5.1,-3.3 -7.7,-8.2 -5.4,-9.5c2.3,-1.3 6.7,1.8 9.8,5.8c-0.1,-7.1 1.1,-8.6 3,-8.7c1.9,-0.1 2.1,2.7 2.2,6.7c0.1,4 0.8,5.6 3.8,8.3c1.8,1.62 3.05,3.75 3.6,6.1z" fill="#3442D9" id="svg_122"/>
  <path d="m382.8,149.2c-2.8,0 -5.2,-2.4 -3,-6.6c2.2,-4.2 9.4,-8.4 12.9,-10c3.5,-1.6 5.1,0 5.2,1.2c0.1,1.2 -0.4,3 -2.9,6.2c-2.5,3.2 -7.1,9.2 -12.2,9.2z" fill="white" id="svg_123"/>
  <path d="m385,148.9l-1.7,0.3l-2.4,-8.2l1.4,-1.5l2.7,9.4z" fill="#8CD9FF" id="svg_124"/>
  <path d="m391.2,144.5l-1.4,1.4l-2.8,-10.1l1.5,-1l2.7,9.7z" fill="#8CD9FF" id="svg_125"/>
  <path d="m396.8,137.5l-1.3,1.8l-2,-7l1.7,-0.3l1.6,5.5z" fill="#8CD9FF" id="svg_126"/>
  <path d="m394.6,131.1c1.85,0.88 3.75,1.65 5.7,2.3" id="svg_127" stroke="black" stroke-linecap="round" stroke-linejoin="round" stroke-width="2"/>
  <path d="m392.1,242.5l11,13.4" id="svg_128" stroke="black" stroke-linecap="round" stroke-linejoin="round" stroke-width="2"/>
  <path d="m400.7,238.5l-3.9,0l-1.2,-5.5l-1.1,-5.1c1.01,-0.99 2.08,-1.93 3.2,-2.8l1.3,5.6l1.7,7.8z" fill="#3442D9" id="svg_129"/>
  <path d="m418,233.2l-3.9,0l-1.2,-5.4l-1.6,-7.6l3.9,0l1.6,7.7l1.2,5.3z" fill="#3442D9" id="svg_130"/>
  <path d="m449.9,233l-3.9,0l-1.2,-5.2l-1.6,-7.8l3.9,0l1.6,7.8l1.2,5.2z" fill="#3442D9" id="svg_131"/>
  <path d="m439.2,169.8c-1.91,-1.52 -4.26,-2.39 -6.7,-2.5c-5.2,0 -8.1,5.1 -9.1,10c-0.16,0.79 -0.59,1.49 -1.2,2c-0.62,0.51 -1.4,0.79 -2.2,0.8l-0.7,0c-0.45,-0.08 -0.88,-0.26 -1.26,-0.51c-0.39,-0.25 -0.71,-0.58 -0.96,-0.96c-0.26,-0.39 -0.43,-0.82 -0.51,-1.27c-0.08,-0.45 -0.07,-0.91 0.03,-1.36c1.9,-9.5 8.1,-15.6 15.9,-15.6c1.29,0.02 2.54,0.47 3.54,1.29c1,0.81 1.69,1.95 1.96,3.21l1.2,4.9z" fill="white" id="svg_132"/>
  <path d="m447.6,206.1c0.22,0.89 0.26,1.82 0.11,2.73c-0.15,0.91 -0.48,1.78 -0.98,2.56c-0.5,0.77 -1.15,1.44 -1.91,1.96c-0.76,0.52 -1.62,0.87 -2.52,1.05l-2.5,0.2c-5.7,0 -11.6,-3.4 -16.2,-9.3c-0.28,-0.37 -0.48,-0.79 -0.59,-1.23c-0.11,-0.45 -0.14,-0.91 -0.07,-1.36c0.06,-0.46 0.21,-0.9 0.45,-1.29c0.23,-0.4 0.54,-0.74 0.91,-1.02c0.36,-0.29 0.78,-0.5 1.23,-0.62c0.45,-0.12 0.91,-0.15 1.37,-0.09c0.46,0.07 0.9,0.23 1.3,0.47c0.39,0.24 0.73,0.56 1,0.94c3.2,4.1 7.1,6.6 10.6,6.6c3.5,0 5.6,-2 7.1,-4.6c0.2,1.1 0.5,2.1 0.7,3z" fill="#2331B5" id="svg_133"/>
  <path d="m440.9,177.5c-0.71,0 -1.39,0.23 -1.97,0.64c-0.57,0.41 -1,0.99 -1.23,1.66l-4.2,11.3c-0.37,1.06 -0.36,2.22 0.02,3.27c0.39,1.06 1.12,1.95 2.08,2.53c0.44,0.27 0.92,0.43 1.43,0.49c0.51,0.05 1.02,-0.01 1.5,-0.19c0.48,-0.17 0.92,-0.45 1.28,-0.81c0.36,-0.37 0.63,-0.81 0.79,-1.29l2.7,-7.3c-0.7,-3.3 -1.5,-6.7 -2.4,-10.3z" fill="#5865F2" id="svg_134"/>
  <path d="m435.6,196.9c-0.96,-0.58 -1.69,-1.47 -2.08,-2.53c-0.38,-1.05 -0.39,-2.21 -0.02,-3.27l1.2,-3.1c0.2,-0.54 0.52,-1.03 0.93,-1.44c0.4,-0.41 0.9,-0.72 1.44,-0.92c0.54,-0.2 1.12,-0.28 1.69,-0.23c0.58,0.04 1.14,0.21 1.64,0.49c0.82,0.48 1.45,1.23 1.78,2.13c0.33,0.89 0.34,1.87 0.02,2.77l-1.6,4.3c-0.16,0.48 -0.43,0.92 -0.79,1.29c-0.36,0.36 -0.8,0.64 -1.28,0.81c-0.48,0.18 -0.99,0.24 -1.5,0.19c-0.51,-0.06 -0.99,-0.22 -1.43,-0.49z" fill="#FFE75C" id="svg_135"/>
  <path d="m382.6,212.9c-3.2,2.23 -6.8,3.82 -10.6,4.7" id="svg_136" stroke="#A3D7FF" stroke-linecap="round" stroke-linejoin="round" stroke-width="2"/>
  <path d="m421.3,359.4l-17.5,0c-10.7,0 -20.6,-8.6 -22.1,-19.2c-1.5,-10.6 5.3,-16.2 16.8,-18.7l2,-0.5c1.62,-0.34 3.05,-1.28 4,-2.64c0.94,-1.36 1.34,-3.02 1.1,-4.66c-0.19,-1.59 -0.92,-3.07 -2.07,-4.2c-1.14,-1.13 -2.63,-1.83 -4.23,-2l-2.9,-0.3c-12.4,-1.3 -20.6,-8.6 -22.1,-19.2c-1.5,-10.6 5.9,-18.7 16.3,-18.7l17.5,0c10.7,0 20.6,8.6 22.1,19.2l7.4,52.2c1.4,10.3 -5.9,18.7 -16.3,18.7z" fill="#ADB4FF" id="svg_137"/>
  <path d="m441.6,359.4l-17.5,0c-10.7,0 -20.6,-8.6 -22.1,-19.2c-0.61,-3.9 0.24,-7.89 2.37,-11.21c2.14,-3.32 5.43,-5.73 9.23,-6.79c1.4,-0.38 2.62,-1.26 3.41,-2.48c0.8,-1.22 1.11,-2.68 0.89,-4.12l-0.5,-3.8c-0.19,-1.21 -0.74,-2.33 -1.58,-3.22c-0.84,-0.89 -1.93,-1.51 -3.12,-1.78c-9.1,-1.9 -16.8,-9.6 -18.1,-18.8c-1.3,-9.2 5.9,-18.7 16.3,-18.7l17.5,0c10.7,0 20.6,8.6 22.1,19.2l7.4,52.2c1.4,10.3 -5.9,18.7 -16.3,18.7z" fill="white" id="svg_138"/>
  <path d="m437.2,286.9c0.07,0.5 0.04,1.01 -0.11,1.49c-0.14,0.49 -0.39,0.93 -0.72,1.31c-0.33,0.38 -0.74,0.69 -1.2,0.9c-0.47,0.2 -0.97,0.3 -1.47,0.3l-18.4,0c-1.11,-0.03 -2.18,-0.45 -3.02,-1.18c-0.84,-0.73 -1.4,-1.72 -1.58,-2.82l0,-0.6c-0.09,-0.49 -0.07,-0.99 0.06,-1.47c0.13,-0.48 0.37,-0.93 0.7,-1.3c0.32,-0.38 0.73,-0.67 1.19,-0.87c0.46,-0.19 0.95,-0.28 1.45,-0.26l18.5,0c1.1,0.03 2.15,0.43 2.99,1.14c0.84,0.71 1.41,1.68 1.61,2.76l0,0.6z" fill="#66BCFF" id="svg_139"/>
  <path d="m429.2,294.3c0.09,0.49 0.07,1 -0.06,1.49c-0.13,0.48 -0.37,0.93 -0.7,1.31c-0.32,0.39 -0.73,0.69 -1.18,0.9c-0.46,0.2 -0.96,0.31 -1.46,0.3l-0.5,0c-1.11,-0.03 -2.18,-0.45 -3.02,-1.18c-0.84,-0.73 -1.4,-1.72 -1.58,-2.82l-2.2,-15.4c-0.07,-0.5 -0.04,-1 0.11,-1.48c0.14,-0.48 0.39,-0.92 0.72,-1.29c0.34,-0.38 0.75,-0.67 1.21,-0.87c0.46,-0.19 0.96,-0.28 1.46,-0.26l0.5,0c1.1,0.03 2.15,0.43 2.99,1.14c0.84,0.71 1.4,1.68 1.61,2.76l2.1,15.4z" fill="#66BCFF" id="svg_140"/>
  <path d="m431.5,317.5c0.03,0.2 0.01,0.41 -0.04,0.61c-0.06,0.2 -0.16,0.39 -0.29,0.55c-0.13,0.16 -0.29,0.29 -0.48,0.38c-0.18,0.09 -0.38,0.15 -0.59,0.16l-0.3,0c-0.46,-0.04 -0.89,-0.22 -1.24,-0.53c-0.34,-0.31 -0.57,-0.72 -0.66,-1.17l-0.9,-6.4c-0.03,-0.21 -0.01,-0.42 0.05,-0.62c0.06,-0.2 0.17,-0.39 0.31,-0.54c0.15,-0.16 0.33,-0.27 0.52,-0.35c0.2,-0.08 0.41,-0.11 0.62,-0.09l0.2,0c0.46,-0.01 0.9,0.15 1.25,0.45c0.35,0.29 0.58,0.7 0.65,1.15l0.9,6.4z" fill="#ADB4FF" id="svg_141"/>
  <path d="m431.1,337.7c-1.1,-0.03 -2.15,-0.43 -2.99,-1.14c-0.84,-0.71 -1.4,-1.68 -1.61,-2.76l0,-0.6c-0.09,-0.49 -0.07,-0.99 0.06,-1.47c0.13,-0.48 0.37,-0.93 0.7,-1.3c0.32,-0.38 0.73,-0.67 1.19,-0.87c0.46,-0.19 0.95,-0.28 1.45,-0.26l0.5,0c1.08,0.02 2.13,0.41 2.96,1.1c0.84,0.69 1.41,1.64 1.64,2.7l0,0.7c0.07,0.5 0.04,1 -0.11,1.48c-0.14,0.48 -0.39,0.92 -0.72,1.29c-0.34,0.38 -0.75,0.67 -1.21,0.87c-0.46,0.19 -0.96,0.28 -1.46,0.26l-0.4,0z" fill="#66BCFF" id="svg_142"/>
  <path d="m433.7,352.6l-0.5,0c-1.1,-0.01 -2.17,-0.4 -3.01,-1.11c-0.84,-0.72 -1.4,-1.7 -1.59,-2.79l0,-0.9c-0.04,-0.48 0.02,-0.96 0.17,-1.42c0.16,-0.45 0.42,-0.87 0.75,-1.22c0.33,-0.35 0.73,-0.62 1.17,-0.81c0.45,-0.18 0.93,-0.27 1.41,-0.25l0.5,0c1.08,0.02 2.13,0.41 2.96,1.1c0.84,0.69 1.42,1.64 1.64,2.7l0,0.7c0.09,0.5 0.07,1.02 -0.07,1.51c-0.13,0.49 -0.38,0.95 -0.72,1.33c-0.33,0.39 -0.75,0.69 -1.22,0.89c-0.47,0.2 -0.98,0.29 -1.49,0.27z" fill="#FF78B9" id="svg_143"/>
  <path d="m431.6,337.7l-0.5,0c-1.1,-0.03 -2.15,-0.43 -2.99,-1.14c-0.84,-0.71 -1.4,-1.68 -1.61,-2.76l0,-0.6c-0.09,-0.49 -0.07,-0.99 0.06,-1.47c0.13,-0.48 0.37,-0.93 0.7,-1.3c0.32,-0.38 0.73,-0.67 1.19,-0.87c0.46,-0.19 0.95,-0.28 1.45,-0.26l0.5,0c1.08,0.02 2.13,0.41 2.96,1.1c0.84,0.69 1.41,1.64 1.64,2.7l0,0.7c0.07,0.49 0.04,0.98 -0.1,1.45c-0.14,0.48 -0.38,0.91 -0.7,1.28c-0.32,0.37 -0.72,0.67 -1.17,0.87c-0.45,0.2 -0.94,0.3 -1.43,0.3z" fill="#5865F2" id="svg_144"/>
  <path d="m441.1,345.1c-1.1,-0.03 -2.15,-0.43 -2.99,-1.14c-0.84,-0.71 -1.4,-1.68 -1.61,-2.76l0,-0.6c-0.09,-0.49 -0.07,-0.99 0.06,-1.47c0.13,-0.48 0.37,-0.93 0.7,-1.3c0.32,-0.38 0.73,-0.67 1.19,-0.87c0.46,-0.19 0.95,-0.28 1.45,-0.26l0.5,0c1.08,0.02 2.13,0.41 2.96,1.1c0.84,0.69 1.41,1.64 1.64,2.7l0,0.7c0.09,0.49 0.07,0.99 -0.06,1.47c-0.13,0.48 -0.37,0.93 -0.7,1.3c-0.32,0.38 -0.73,0.67 -1.19,0.87c-0.46,0.19 -0.95,0.28 -1.45,0.26l-0.5,0z" fill="#66BCFF" id="svg_145"/>
  <path d="m441.6,345.1l-0.5,0c-1.1,-0.03 -2.15,-0.43 -2.99,-1.14c-0.84,-0.71 -1.4,-1.68 -1.61,-2.76l0,-0.6c-0.09,-0.49 -0.07,-0.99 0.06,-1.47c0.13,-0.48 0.37,-0.93 0.7,-1.3c0.32,-0.38 0.73,-0.67 1.19,-0.87c0.46,-0.19 0.95,-0.28 1.45,-0.26l0.5,0c1.08,0.02 2.13,0.41 2.96,1.1c0.84,0.69 1.41,1.64 1.64,2.7l0,0.7c0.09,0.49 0.07,0.99 -0.06,1.47c-0.13,0.48 -0.37,0.93 -0.7,1.3c-0.32,0.38 -0.73,0.67 -1.19,0.87c-0.46,0.19 -0.95,0.28 -1.45,0.26z" fill="#5865F2" id="svg_146"/>
  <path d="m423.7,345.3l-0.6,0c-1.1,-0.04 -2.15,-0.45 -2.97,-1.18c-0.83,-0.74 -1.37,-1.73 -1.53,-2.82l0,-0.9c-0.06,-0.47 -0.01,-0.96 0.13,-1.41c0.15,-0.45 0.39,-0.87 0.72,-1.23c0.32,-0.35 0.72,-0.62 1.16,-0.81c0.44,-0.18 0.91,-0.27 1.39,-0.25l0.6,0c1.08,0.05 2.11,0.46 2.93,1.17c0.82,0.71 1.37,1.67 1.57,2.73l0,0.6c0.11,0.5 0.1,1.02 -0.03,1.52c-0.12,0.49 -0.35,0.96 -0.68,1.35c-0.33,0.39 -0.74,0.71 -1.2,0.92c-0.47,0.22 -0.98,0.32 -1.49,0.31z" fill="#FF78B9" id="svg_147"/>
  <path d="m261.4,339.4l-9.7,-5.4c7.61,-12.54 16,-24.6 25.1,-36.1c-17.9,6.5 -36.7,14.6 -57.5,14.6l-34.8,0c-2.1,-4.3 -2.7,-8.7 -2.7,-15.3l42.5,-15.5l16.1,3.3l0.5,4.6c15.4,-3.9 31.3,-8.4 42.8,-11.1c14.5,-3.4 19.4,3.9 11,16.1c-16.2,23.6 -33.3,44.8 -33.3,44.8z" fill="#29CC7A" id="svg_148"/>
  <path d="m194.1,293.2c0,8.5 0,14.5 4.1,17.9c0.99,0.9 2.27,1.39 3.6,1.4l4.2,0c-10.2,-1.7 -10.2,-7.2 -10.1,-19.3l0,-0.8c0,-0.1 -0.1,-0.2 -0.1,-0.3l-1.7,0.6l0,0.5z" fill="#15AD75" id="svg_149"/>
  <path d="m261.4,334.9c15.6,-20.6 25.6,-34.9 29.8,-41.6c4.2,-6.7 5.6,-10.9 -15.6,-3.7c-21.2,7.2 -37.3,13.7 -42,11.9c-4.7,-1.8 -3,-6.6 -2.7,-15.1" id="svg_150" stroke="#15AD75" stroke-linecap="round" stroke-linejoin="round" stroke-width="2"/>
  <path d="m199,237.8c-7.17,-11.04 -13.07,-22.84 -17.6,-35.2c-0.64,-2.06 -0.78,-4.23 -0.42,-6.35c0.37,-2.12 1.23,-4.13 2.52,-5.85c7.3,-8.8 16.9,-13.5 29.7,-15.7c1.39,-0.15 2.79,0.24 3.9,1.1c15.2,13.3 19.7,28.3 22.3,42.9c0.07,0.84 -0.08,1.69 -0.43,2.46c-0.35,0.77 -0.89,1.43 -1.57,1.94c-7.5,4.6 -11.5,6 -11.5,6l1.5,11.1l-28.4,-2.4z" fill="#FFE75C" id="svg_151"/>
  <path d="m213.5,200.5c7.49,0.7 14.94,1.83 22.3,3.4l4.1,1.1c0.15,0.04 0.29,0.12 0.4,0.23c0.11,0.11 0.19,0.25 0.23,0.4c0.04,0.16 0.04,0.32 0,0.47c-0.04,0.15 -0.12,0.29 -0.23,0.4l-0.9,0.8l1.6,6.2c0.52,1.9 0.39,3.91 -0.38,5.72c-0.76,1.82 -2.1,3.32 -3.82,4.28l-3.7,2.1l-19.6,-25.1z" fill="#FFE75C" id="svg_152"/>
  <path d="m216.71,207.87c1.9,-1.33 1.52,-5.16 -0.85,-8.56c-2.37,-3.39 -5.83,-5.07 -7.74,-3.75c-1.9,1.33 -1.52,5.16 0.85,8.56c2.37,3.4 5.83,5.07 7.74,3.75z" fill="#FF78B9" id="svg_153"/>
  <path d="m228.5,194c-1.2,-1.1 -2.5,-1.4 -3,-0.9c-0.5,0.5 -0.2,1.3 0.9,2.1l1.3,1.3c0.9,1 1.6,0.8 2,0.3c0.4,-0.5 0,-1.8 -1.2,-2.8z" fill="black" id="svg_154"/>
  <path d="m188.8,185.1c-1.6,-16.1 0,-21.5 3.4,-26.2c3.4,-4.7 5.4,-3.3 4.8,2.9c-0.36,4.86 -0.33,9.74 0.1,14.6c2.96,-7.58 7.26,-14.55 12.7,-20.6c1.61,-1.95 3.77,-3.38 6.2,-4.1c2.4,-0.6 3.7,0.8 3,3.1c-1.2,3.9 -4.1,10.1 -11.9,21.2l0.8,4.4l-19.1,4.7z" fill="#FFE75C" id="svg_155"/>
  <path d="m235.5,247.3c8.5,2.9 2.5,29.5 2.5,29.5l1.2,0.9c0.98,0.75 1.68,1.82 1.97,3.02c0.29,1.2 0.16,2.46 -0.37,3.58l-0.4,0.7c-5.9,0 -9.8,0.5 -17.8,6.2c-8,5.7 -13.1,6 -21.3,6l-19.5,0l0,-6.6c-7.3,-2.9 -7.9,-6.4 -5.1,-10.9c1.5,-2.6 3.9,-6.2 5.7,-8.9c0.69,-1.03 1.17,-2.19 1.41,-3.41c0.24,-1.22 0.24,-2.47 -0.01,-3.69c-1.6,-8.6 -0.3,-13.7 -0.3,-13.7l21.2,-5.7l26.9,-1.1l3.9,4.1z" fill="#2331B5" id="svg_156"/>
  <path d="m234.87,271.79c2.57,-0.67 3.47,-5.68 2.01,-11.18c-1.45,-5.5 -4.71,-9.41 -7.27,-8.73c-2.56,0.67 -3.46,5.68 -2.01,11.18c1.45,5.5 4.71,9.41 7.27,8.73z" fill="black" id="svg_157"/>
  <path d="m247.9,334.6c2.4,-2.5 7.6,-6.7 7.6,-6.7c3.3,0 8.3,0.6 10.5,9.7l2.7,10.7c10.3,1.9 10.4,4.8 9,8.6l0,1.7c0,0.21 -0.08,0.42 -0.23,0.57c-0.15,0.15 -0.36,0.23 -0.57,0.23l-17.2,0l-11.8,-24.8z" fill="white" id="svg_158"/>
  <path d="m276.9,359.4c0.21,0 0.42,-0.08 0.57,-0.23c0.15,-0.15 0.23,-0.36 0.23,-0.57l0,-1.7c-6.8,0 -11.8,0.7 -14.3,-3.7c-2.68,-5.32 -5.05,-10.8 -7.1,-16.4c-0.9,-2.6 -2.8,-5.7 -5.7,-4.8l-2.7,2.6l11.8,24.8l17.2,0z" fill="#FF78B9" id="svg_159"/>
  <path d="m269.6,359.4c-1.81,0.03 -3.6,-0.41 -5.19,-1.27c-1.59,-0.85 -2.94,-2.1 -3.91,-3.63c-3.7,-5.6 -6,-12.3 -7.4,-16.4c-1.4,-4.1 -5.9,-5.7 -6.3,-0.5c-0.4,5.2 2.3,9.2 6.5,19.6c0.23,0.66 0.67,1.23 1.24,1.62c0.58,0.4 1.26,0.6 1.96,0.58l13.1,0z" fill="black" id="svg_160"/>
  <path d="m235.5,247.3l15.8,5.4c1.6,-22.1 8.3,-28.4 16.1,-46c5.6,-12.5 8.2,-18.2 9.3,-20.4c0.16,-0.37 0.43,-0.68 0.77,-0.89c0.33,-0.22 0.73,-0.32 1.13,-0.31l0.6,0c0.31,0 0.61,0.06 0.89,0.18c0.28,0.13 0.53,0.31 0.74,0.53c0.21,0.23 0.37,0.5 0.46,0.79c0.1,0.29 0.14,0.59 0.11,0.9c-0.99,5.91 -2.57,11.7 -4.7,17.3c4.7,-3.2 6.8,-3.2 9,0.1c5.4,-2.8 7.4,-2.9 9.3,1.3c1.9,4.2 1.6,5 0.6,8.4c-1,3.4 -2.5,3.7 -4.8,3.7c0,23.2 -1.5,31.9 -12.4,47.5c-9.7,13.9 -10.2,12.2 -23.4,8c-7.6,-2.4 -15.1,-5.1 -20,-7c-2.84,-1.03 -5.23,-3.03 -6.74,-5.65c-1.52,-2.61 -2.07,-5.67 -1.56,-8.65c0.9,-4.2 3.7,-6.9 8.8,-5.2z" fill="#FFE75C" id="svg_161"/>
  <path d="m235.5,247.3c0.54,-0.64 1.04,-1.3 1.5,-2c0.27,-0.37 0.45,-0.8 0.54,-1.24c0.09,-0.45 0.08,-0.91 -0.02,-1.36c-0.1,-0.45 -0.3,-0.86 -0.58,-1.23c-0.28,-0.36 -0.64,-0.66 -1.04,-0.87c-27.3,-15 -36.9,-16.8 -51.9,-16.8c-9.7,0 -9.2,2.5 -8.3,7.1c-6.9,6.4 -6.8,8.6 -2,14.9c4.8,6.3 6.3,8.8 10.8,8.8c4.5,0 15,0.1 24.2,-4.6c9.2,-4.7 13.6,-7.1 26.8,-2.7z" fill="white" id="svg_162"/>
  <path d="m235.1,202c-11.1,-1.9 -22.4,-3.1 -22.5,-3.1c-0.11,-0.01 -0.23,0 -0.34,0.03c-0.11,0.03 -0.21,0.09 -0.29,0.17c-0.09,0.07 -0.15,0.16 -0.2,0.27c-0.05,0.1 -0.07,0.22 -0.07,0.33c-0.03,0.22 0.02,0.45 0.15,0.64c0.13,0.18 0.33,0.31 0.55,0.36c0.2,0 12,1.2 23.4,3.2c-0.2,-0.6 -0.4,-1.2 -0.7,-1.9z" fill="black" id="svg_163"/>
  <path d="m212.8,198.4c-0.59,0.86 -1.13,1.76 -1.6,2.7" id="svg_164" stroke="black" stroke-linecap="round" stroke-linejoin="round" stroke-width="2"/>
  <path d="m251.3,252.7l6.6,1.9" id="svg_165" stroke="black" stroke-linecap="round" stroke-linejoin="round" stroke-width="2"/>
  <path d="m194.4,183.7c-0.1,0.38 -0.24,0.74 -0.4,1.1c-0.07,0.16 -0.18,0.3 -0.32,0.41c-0.14,0.1 -0.31,0.17 -0.48,0.19l-0.3,0c-0.11,-0.03 -0.21,-0.09 -0.3,-0.16c-0.08,-0.08 -0.15,-0.17 -0.2,-0.28c-0.05,-0.1 -0.07,-0.21 -0.07,-0.33c0,-0.11 0.02,-0.23 0.07,-0.33c0.1,-0.3 2.2,-6.5 4.1,-10.9c0.08,-0.18 0.22,-0.32 0.4,-0.4c0,1.2 0.1,2.3 0.2,3.5c0.1,1.2 -2.1,5.4 -2.7,7.2z" fill="#FFC619" id="svg_166"/>
  <path d="m287.8,248c0.36,-1.06 0.46,-2.19 0.31,-3.31c-0.16,-1.11 -0.57,-2.17 -1.21,-3.09c-0.44,-0.52 -0.95,-0.99 -1.5,-1.4c-1.24,-0.71 -2.66,-1.05 -4.09,-1c-1.43,0.05 -2.82,0.5 -4.01,1.3c0.6,-3.4 1.4,-9.6 0.8,-14.3c-0.6,-4.7 -2.4,-4.1 -3.5,-4.3c-3.2,-0.6 -7.6,2.8 -11.5,8.9c-0.7,-3.3 -1.7,-4.9 -3.3,-5.3c-0.44,-0.09 -0.89,-0.03 -1.29,0.17c-0.4,0.2 -0.72,0.53 -0.91,0.93l-1.5,3.6c2,-3 3.1,-3 3.4,-3c0.3,0 1.6,0.8 2.3,6.2c0.02,0.18 0.1,0.34 0.23,0.47c0.13,0.13 0.29,0.21 0.47,0.23c0.19,0.04 0.38,0.02 0.56,-0.05c0.18,-0.08 0.33,-0.2 0.44,-0.35c4.1,-7.5 8.5,-10.5 10.8,-10.1c2.3,0.4 1.9,1.7 2,2.9c0.9,6.1 -1.1,15.8 -1.1,15.9c-0.03,0.17 -0.01,0.35 0.07,0.51c0.07,0.16 0.18,0.3 0.33,0.39c0.18,0.08 0.37,0.12 0.56,0.1c0.2,-0.02 0.38,-0.09 0.54,-0.2c2.2,-2.3 5.6,-2.9 7.7,-1.5c2.1,1.4 3.1,6.5 0.8,12.8c1.05,-2.09 1.93,-4.26 2.6,-6.5z" fill="#FFF4B3" id="svg_167"/>
  <path d="m271.2,207.1c3.4,-1.9 4.6,-3 7.6,0c4,-2.1 4.8,-2.1 7,1.1" id="svg_168" stroke="#FFC619" stroke-linecap="round" stroke-linejoin="round" stroke-width="2"/>
  <path d="m292.6,217.9c-0.1,-2.8 -0.4,-7.1 -0.5,-7.2c0,-0.11 -0.02,-0.23 -0.07,-0.33c-0.04,-0.11 -0.11,-0.2 -0.2,-0.27c-0.08,-0.08 -0.18,-0.14 -0.29,-0.17c-0.11,-0.03 -0.23,-0.04 -0.34,-0.03c-0.11,0 -0.23,0.02 -0.33,0.07c-0.11,0.04 -0.2,0.11 -0.27,0.2c-0.08,0.08 -0.14,0.18 -0.17,0.29c-0.03,0.11 -0.04,0.23 -0.03,0.34c0,0.1 0.4,4.4 0.4,7.2c-0.01,0.05 0,0.11 0.02,0.16c0.02,0.05 0.04,0.1 0.08,0.14l1.6,0l0.1,-0.4z" fill="black" id="svg_169"/>
  <path d="m293.7,214.5l-2.2,0c-0.12,0 -0.24,-0.02 -0.34,-0.07c-0.11,-0.04 -0.21,-0.11 -0.3,-0.19c-0.08,-0.09 -0.15,-0.19 -0.19,-0.3c-0.05,-0.1 -0.07,-0.22 -0.07,-0.34c0.03,-0.22 0.13,-0.42 0.3,-0.57c0.16,-0.15 0.38,-0.23 0.6,-0.23l2.2,0c0.22,0 0.44,0.08 0.6,0.23c0.17,0.15 0.27,0.35 0.3,0.57c0,0.12 -0.02,0.24 -0.07,0.34c-0.04,0.11 -0.11,0.21 -0.19,0.3c-0.09,0.08 -0.19,0.15 -0.3,0.19c-0.1,0.05 -0.22,0.07 -0.34,0.07z" fill="black" id="svg_170"/>
  <path d="m262.5,272.4c2.11,-0.05 4.22,-0.25 6.3,-0.6" id="svg_171" stroke="#FFC619" stroke-linecap="round" stroke-linejoin="round" stroke-width="2"/>
  <path d="m198.5,294.2c-11.4,-1.4 -16.5,-3.5 -16.6,-3.5l-0.1,0l0,1.8c1.7,0.6 6.8,2.2 16.5,3.5l0.1,0c0.22,0 0.44,-0.08 0.6,-0.23c0.17,-0.14 0.28,-0.35 0.3,-0.57c0.01,-0.12 0,-0.24 -0.03,-0.35c-0.03,-0.12 -0.09,-0.22 -0.16,-0.32c-0.08,-0.09 -0.17,-0.17 -0.27,-0.22c-0.11,-0.06 -0.22,-0.1 -0.34,-0.11z" fill="black" id="svg_172"/>
  <path d="m240.9,289.6c-2.55,0.81 -4.86,2.26 -6.7,4.2" id="svg_173" stroke="black" stroke-linecap="round" stroke-linejoin="round" stroke-width="2"/>
  <path d="m277.7,297.9c4.04,-1.79 7.95,-3.86 11.7,-6.2" id="svg_174" stroke="black" stroke-linecap="round" stroke-linejoin="round" stroke-width="2"/>
  <path d="m279.7,297l5.3,0.2" id="svg_175" stroke="black" stroke-linecap="round" stroke-linejoin="round" stroke-width="2"/>
  <path d="m176.6,230.4c16.6,-1.6 28.4,2.2 44.7,9.5c-16.3,-1.1 -35.5,-1.7 -35.5,-1.7" id="svg_176" stroke="#BAE8FF" stroke-linecap="round" stroke-linejoin="round" stroke-width="2"/>
  <path d="m172.1,312.5l66.6,0c0.95,0 1.87,0.38 2.55,1.05c0.67,0.68 1.05,1.59 1.05,2.55l0,43.3l-73.8,0l0,-43.3c0,-0.96 0.38,-1.87 1.05,-2.55c0.68,-0.67 1.6,-1.05 2.55,-1.05z" fill="#8CD9FF" id="svg_177"/>
  <path d="m235.7,312.5l3,0c0.95,0 1.87,0.38 2.55,1.05c0.67,0.68 1.05,1.59 1.05,2.55l0,43.3l-10.2,0l0,-43.3c0,-0.47 0.09,-0.94 0.27,-1.38c0.18,-0.43 0.45,-0.83 0.78,-1.17c0.34,-0.33 0.74,-0.6 1.17,-0.78c0.44,-0.18 0.91,-0.27 1.38,-0.27z" fill="#45AAF7" id="svg_178"/>
  <path d="m178.3,345.6l44,0c0.8,0 1.56,0.32 2.12,0.88c0.56,0.56 0.88,1.32 0.88,2.12l0,10.8l-49.9,0l0,-10.8c0,-0.78 0.3,-1.53 0.84,-2.09c0.54,-0.56 1.28,-0.88 2.06,-0.91z" fill="#45AAF7" id="svg_179"/>
  <path d="m180.3,312.5l0,46.9" id="svg_180" stroke="#5865F2" stroke-miterlimit="10" stroke-width="2"/>
  <path d="m220.2,312.5l0,46.9" id="svg_181" stroke="#5865F2" stroke-miterlimit="10" stroke-width="2"/>
  <path d="m222.7,316.1l-44.9,0c-1.38,0 -2.5,1.12 -2.5,2.5l0,15.99c0,1.38 1.12,2.5 2.5,2.5l44.9,0c1.38,0 2.5,-1.12 2.5,-2.5l0,-15.99c0,-1.38 -1.12,-2.5 -2.5,-2.5z" fill="black" id="svg_182"/>
  <path d="m231.2,319.5c-0.14,-0.02 -0.27,0 -0.4,0.04c-0.13,0.05 -0.25,0.12 -0.34,0.22c-0.1,0.09 -0.17,0.21 -0.22,0.34c-0.04,0.13 -0.06,0.27 -0.04,0.4c0,0.26 0.11,0.52 0.29,0.71c0.19,0.18 0.44,0.29 0.71,0.29l11.1,0l0,-2l-11.1,0z" fill="#5865F2" id="svg_183"/>
  <path d="m230.2,324.8c-0.02,0.14 0,0.27 0.04,0.4c0.05,0.13 0.12,0.25 0.22,0.34c0.09,0.1 0.21,0.17 0.34,0.22c0.13,0.04 0.26,0.06 0.4,0.04l11.1,0l0,-2l-11.1,0c-0.27,0 -0.52,0.1 -0.71,0.29c-0.18,0.19 -0.29,0.45 -0.29,0.71z" fill="#5865F2" id="svg_184"/>
  <path d="m230.2,329.2c0,0.26 0.11,0.52 0.29,0.71c0.19,0.19 0.44,0.29 0.71,0.29l11.1,0l0,-2l-11.1,0c-0.14,-0.02 -0.27,0 -0.4,0.04c-0.13,0.05 -0.25,0.12 -0.34,0.22c-0.1,0.09 -0.17,0.21 -0.22,0.34c-0.04,0.13 -0.06,0.26 -0.04,0.4z" fill="#5865F2" id="svg_185"/>
  <path d="m170.3,320.5c-0.02,0.26 -0.14,0.5 -0.32,0.68c-0.18,0.19 -0.42,0.3 -0.68,0.32l-0.8,0l0,-2l0.8,0c0.27,0 0.52,0.11 0.71,0.29c0.18,0.19 0.29,0.45 0.29,0.71z" fill="#5865F2" id="svg_186"/>
  <path d="m170.3,324.8c0,0.26 -0.11,0.52 -0.29,0.71c-0.19,0.18 -0.44,0.29 -0.71,0.29l-0.8,0l0,-2l0.8,0c0.26,0.02 0.5,0.14 0.68,0.32c0.18,0.18 0.3,0.42 0.32,0.68z" fill="#5865F2" id="svg_187"/>
  <path d="m170.3,329.2c-0.02,0.26 -0.14,0.5 -0.32,0.68c-0.18,0.18 -0.42,0.3 -0.68,0.32l-0.8,0l0,-2l0.8,0c0.27,0 0.52,0.11 0.71,0.29c0.18,0.19 0.29,0.45 0.29,0.71z" fill="#5865F2" id="svg_188"/>
  <path d="m209.9,317.6l-29.3,0c-0.72,0 -1.3,0.58 -1.3,1.3l0,13.85c0,0.72 0.58,1.3 1.3,1.3l29.3,0c0.72,0 1.3,-0.58 1.3,-1.3l0,-13.85c0,-0.72 -0.58,-1.3 -1.3,-1.3z" fill="#FFF4B3" id="svg_189"/>
  <path d="m222.3,334.1l-8,0c-0.5,0 -0.9,0.4 -0.9,0.9l0,1.22c0,0.5 0.4,0.9 0.9,0.9l8,0c0.5,0 0.9,-0.4 0.9,-0.9l0,-1.22c0,-0.5 -0.4,-0.9 -0.9,-0.9z" fill="#FF78B9" id="svg_190"/>
  <path d="m191.1,319.5c0,2.44 0.97,4.78 2.69,6.5c1.73,1.73 4.07,2.7 6.51,2.7c2.44,0 4.78,-0.97 6.51,-2.7c1.72,-1.72 2.69,-4.06 2.69,-6.5c-0.01,-0.64 -0.08,-1.27 -0.2,-1.9l-18,0c-0.17,0.62 -0.24,1.26 -0.2,1.9z" fill="#29CC7A" id="svg_191"/>
  <path d="m182,334.1l15,0c-0.85,-1.2 -1.98,-2.17 -3.28,-2.85c-1.3,-0.67 -2.75,-1.02 -4.22,-1.02c-1.47,0 -2.92,0.35 -4.22,1.02c-1.3,0.68 -2.43,1.65 -3.28,2.85z" fill="#29CC7A" id="svg_192"/>
 </g>
</svg>