<?xml version="1.0"?>
<svg width="689" height="352" xmlns="http://www.w3.org/2000/svg" xmlns:svg="http://www.w3.org/2000/svg">
 <g class="layer">
  <title>Layer 1</title>
  <path d="m462.4,350.4c-22.1,-45.6 -34.5,-100.2 -34.5,-100.2l-1,-5.3l-44.5,5.3l0,100.2l80,0z" fill="#2835BD" id="svg_2"/>
  <path d="m452.8,350.4c-19.4,-40 -30.2,-87.9 -30.2,-87.9l-2.6,-13.4l-37.3,13.4l0,87.9l70.1,0z" fill="black" id="svg_3"/>
  <path d="m459.8,217l-16.2,0l0,133.46l16.2,0l0,-133.46z" fill="#2835BD" id="svg_4"/>
  <path d="m459.8,234.3c-2.43,1.11 -5.12,1.49 -7.76,1.12c-2.64,-0.37 -5.11,-1.49 -7.14,-3.22l-1.3,-1.1l0,-6l16.2,-3.1l0,12.3z" fill="black" id="svg_5"/>
  <path d="m435,350.4c11.1,-2.7 26.2,-17.4 26.2,-17.4c0,0 5.3,11.4 8.4,17.4l11.2,0c1.21,0.01 2.41,-0.24 3.51,-0.73c1.11,-0.49 2.1,-1.2 2.91,-2.1c0.81,-0.89 1.43,-1.95 1.8,-3.1c0.38,-1.15 0.51,-2.37 0.38,-3.57c-0.5,-4.9 -2.8,-10.4 -6.3,-18.4c-5.9,-13.3 -7.8,-20.3 -19.3,-20.3l-10.4,0l-24,-10.6c-15.4,8.1 -26,12.8 -35.1,18.2c-13.4,8.2 -24,24.4 -13.6,40.6l54.3,0z" fill="#FFC619" id="svg_6"/>
  <path d="m266,262.5l0,87.9l121.8,0c19.4,-40 30.2,-87.9 30.2,-87.9l2.9,-12.3l-154.9,12.3z" fill="#2835BD" id="svg_7"/>
  <path d="m390.2,265.2l-124.2,11.6l0,73.6l92.9,0c9,-20.5 31.3,-85.2 31.3,-85.2z" fill="black" id="svg_8"/>
  <path d="m373.7,343.7c10.25,-15.84 18.38,-32.95 24.2,-50.9" id="svg_9" stroke="black" stroke-linecap="round" stroke-linejoin="round" stroke-width="2"/>
  <path d="m359.2,331.5c-5.15,0 -10.08,2.04 -13.72,5.68c-3.64,3.64 -5.68,8.57 -5.68,13.72l38.8,0c0,-5.15 -2.04,-10.08 -5.68,-13.72c-3.64,-3.64 -8.57,-5.68 -13.72,-5.68z" fill="#404EED" id="svg_10"/>
  <path d="m386.8,350.4c19.4,-40 30.3,-87.9 30.3,-87.9l-30.3,87.9z" fill="#2835BD" id="svg_11"/>
  <path d="m424.3,350.3c-0.1,-0.2 -7,-17.6 -10.6,-28.8l-0.2,-0.7c-2.4,-7.6 -4.4,-13.7 -4.1,-19.1l-1.7,0.9c0,5.4 1.9,11.4 4.3,18.7l0.2,0.7c3.3,10.2 9.2,25.5 10.4,28.4l1.7,0l0,-0.1z" fill="black" id="svg_12"/>
  <path d="m486.8,348c0.62,-0.6 1.08,-1.34 1.36,-2.16c0.28,-0.82 0.36,-1.69 0.24,-2.54c-0.7,-7.1 -4.4,-15.6 -8.3,-24.4l-4,-9.4l-1.5,0.6c1.3,3.2 2.7,6.3 4,9.4c4.7,10.7 9.2,21 8.2,28.5z" fill="white" id="svg_13"/>
  <path d="m453.4,321.9c-1.9,7.8 -4.6,17.5 -8.1,28.5l-21,0c0,0 -6.8,-17.5 -10.5,-28.8c-3.7,-11.3 -6.4,-19.4 -2.7,-26.9c3.7,-7.5 9.5,-8.1 18.3,-3.1l-1.3,14.2l6.7,19l3.1,-10.1c6.6,-4.3 14.9,-1.9 15.5,7.2z" fill="#FFC619" id="svg_14"/>
  <path d="m426.3,344.1l-1.7,-4.9c-3.7,-10.9 -6.9,-20.2 -9.1,-28.7c-1.8,-7 -3.3,-15.3 -2.4,-19c-0.73,0.9 -1.37,1.87 -1.9,2.9c0,5.4 1.8,12.9 2.7,16.5c2.3,8.6 5.5,17.9 9.2,28.8l1.7,5c0.73,2.07 1.43,3.97 2.1,5.7l1.8,0c-0.8,-1.8 -1.5,-3.8 -2.4,-6.3z" fill="white" id="svg_15"/>
  <path d="m441.5,350.4c2.3,-7.7 5.6,-19 9.9,-33.6c0.03,-0.11 0.04,-0.22 0.02,-0.32c-0.01,-0.11 -0.05,-0.22 -0.1,-0.31c-0.06,-0.09 -0.14,-0.17 -0.22,-0.24c-0.09,-0.06 -0.19,-0.11 -0.3,-0.13c-0.1,-0.05 -0.2,-0.07 -0.31,-0.07c-0.11,0 -0.22,0.02 -0.32,0.07c-0.09,0.05 -0.18,0.12 -0.24,0.21c-0.07,0.08 -0.11,0.18 -0.13,0.29c-4.4,14.9 -7.7,26.4 -10,34.1l1.7,0z" fill="white" id="svg_16"/>
  <path d="m449.6,260.4c-12.6,-1.8 -17.4,-0.9 -22.1,9.7c-4.7,10.6 -2.3,19.6 5.5,31c7.8,11.4 27,9.3 34.3,6.6c7.3,-2.7 13.7,-10 17.3,-20.3c3.6,-10.3 2.5,-21.6 -2.9,-27.8c-5.4,-6.2 -14.5,-11.3 -22.7,-8.7c-8.2,2.6 -9.4,9.5 -9.4,9.5z" fill="#DE3A93" id="svg_17"/>
  <path d="m455.7,275.3l-3.8,-1" id="svg_18" stroke="black" stroke-linecap="round" stroke-linejoin="round" stroke-width="2"/>
  <path d="m455.9,276.9l-3.9,0.5" id="svg_19" stroke="black" stroke-linecap="round" stroke-linejoin="round" stroke-width="2"/>
  <path d="m483.5,275l3,-2" id="svg_20" stroke="black" stroke-linecap="round" stroke-linejoin="round" stroke-width="2"/>
  <path d="m483.3,276.7l3.1,-0.5" id="svg_21" stroke="black" stroke-linecap="round" stroke-linejoin="round" stroke-width="2"/>
  <path d="m445.5,250.2c-2.1,0 -3.7,1.4 -3.8,2.4c-0.1,1 3.7,4.2 8.6,10.3l1.3,-0.5c-4.6,-11.8 -4,-12.3 -6.1,-12.2z" fill="black" id="svg_22"/>
  <path d="m455.2,259.5c-3.8,2.4 -8.2,5.7 -8.2,5.7" id="svg_23" stroke="black" stroke-linecap="round" stroke-linejoin="round" stroke-width="2"/>
  <path d="m453.4,321.9c1.2,-5.1 2.1,-9.4 2.6,-12.7c1.4,-8.6 -1.2,-10 -5,-11.1c-3.8,-1.1 -6.5,-3.2 -8.3,-9.7c-1.8,-6.5 -2.9,-6.4 -5.1,-5.3c-2.4,1.3 -4.46,3.15 -6,5.4c-1.2,2.1 -1,4.5 1.3,10.4c1.52,3.69 3.97,6.93 7.1,9.4l-2.1,6.4c7.7,-0.3 12.3,0.7 15.5,7.2z" fill="#FF78B9" id="svg_24"/>
  <path d="m465.9,317.9c-1.1,-4.9 -2.5,-10.2 0,-11.6c2.5,-1.4 10.2,-5 14.4,-14.1c0.09,-0.23 0.22,-0.43 0.39,-0.61c0.17,-0.17 0.37,-0.31 0.6,-0.4c0.22,-0.1 0.46,-0.14 0.71,-0.14c0.24,0 0.48,0.05 0.7,0.15l0.2,0c0.18,0.07 0.35,0.17 0.49,0.3c0.14,0.13 0.25,0.3 0.33,0.47c0.07,0.18 0.11,0.38 0.11,0.57c-0.01,0.19 -0.05,0.38 -0.13,0.56c-2.05,4.35 -4.49,8.5 -7.3,12.4c0.58,2.35 1.32,4.65 2.2,6.9c-4.6,2.3 -12.7,5.5 -12.7,5.5z" fill="#FF78B9" id="svg_25"/>
  <path d="m441.3,301.9c0.15,-0.16 0.23,-0.38 0.23,-0.6c0,-0.22 -0.08,-0.43 -0.23,-0.6c-1.5,-1.57 -2.83,-3.27 -4,-5.1c-1.9,-3.3 -3.7,-9.2 -2.4,-10.7l-1.4,1.3c-0.22,0.24 -0.39,0.53 -0.49,0.84c-0.11,0.31 -0.14,0.64 -0.11,0.96c0.53,2.95 1.54,5.79 3,8.4c1.21,1.97 2.62,3.81 4.2,5.5l0.6,0.2l0.6,-0.2z" fill="black" id="svg_26"/>
  <path d="m440.8,308.5c2.88,-0.36 5.79,-0.49 8.7,-0.4" id="svg_27" stroke="black" stroke-linecap="round" stroke-linejoin="round" stroke-width="2"/>
  <path d="m431.3,335.7l6.3,-20" id="svg_28" stroke="black" stroke-linecap="round" stroke-linejoin="round" stroke-width="2"/>
  <path d="m434.8,324.8l-6.1,-17.5" id="svg_29" stroke="black" stroke-linecap="round" stroke-linejoin="round" stroke-width="2"/>
  <path d="m466,318.7c1.8,9.7 5.7,23.3 5.7,23.3" id="svg_30" stroke="black" stroke-linecap="round" stroke-linejoin="round" stroke-width="2"/>
  <path d="m384.9,325c-3.47,0 -6.81,1.38 -9.26,3.84c-2.46,2.45 -3.84,5.79 -3.84,9.26l0,12.8l26.1,0l0,-12.8c0,-3.46 -1.37,-6.77 -3.8,-9.23c-2.44,-2.45 -5.74,-3.84 -9.2,-3.87z" fill="#404EED" id="svg_31"/>
  <path d="m397.9,338.1c-1.69,-0.01 -3.37,0.31 -4.93,0.95c-1.56,0.63 -2.99,1.57 -4.19,2.76c-1.19,1.19 -2.15,2.61 -2.8,4.17c-0.65,1.56 -0.98,3.23 -0.98,4.92l25.7,0c0,-3.4 -1.35,-6.65 -3.75,-9.05c-2.4,-2.4 -5.66,-3.75 -9.05,-3.75z" fill="#404EED" id="svg_32"/>
  <path d="m438,226.5l19.7,-3.1" id="svg_33" stroke="black" stroke-linecap="round" stroke-linejoin="round" stroke-width="8"/>
  <path d="m479.2,263.1l0.7,1.1" id="svg_34" stroke="#FFA8D2" stroke-linecap="round" stroke-linejoin="round" stroke-width="3"/>
  <path d="m469.3,255.8c2.59,0.78 4.98,2.11 7,3.9" id="svg_35" stroke="#FFA8D2" stroke-linecap="round" stroke-linejoin="round" stroke-width="3"/>
  <path d="m457.2,223.5c16.7,-2.8 43.5,-9 57.4,-12.7" id="svg_36" stroke="#2835BD" stroke-linecap="round" stroke-linejoin="round" stroke-width="8"/>
  <path d="m509.6,213.5l5.3,24.6" id="svg_37" stroke="black" stroke-linecap="round" stroke-linejoin="round" stroke-width="2"/>
  <path d="m519.9,237.3l0,-3.2l-20.6,0l0,3.3c-0.04,0.46 -0.18,0.9 -0.4,1.3c-1.03,1.5 -1.59,3.28 -1.6,5.1l0,13.1c0,2.21 0.8,4.35 2.25,6.02c1.45,1.68 3.46,2.77 5.65,3.08c2.95,0.4 5.95,0.4 8.9,0c2.16,-0.34 4.13,-1.44 5.55,-3.11c1.41,-1.68 2.18,-3.8 2.15,-5.99l0,-13.1c0.03,-1.81 -0.5,-3.59 -1.5,-5.1c-0.28,-0.41 -0.42,-0.9 -0.4,-1.4z" fill="#8CD9FF" id="svg_38"/>
  <path d="m518,238.7l0,-4.1l-16.9,0l0,4.1c0.01,0.81 -0.2,1.6 -0.6,2.3c-0.8,1.18 -1.22,2.58 -1.2,4l0,11.2c0,1.86 0.67,3.66 1.88,5.07c1.21,1.41 2.88,2.34 4.72,2.63c2.39,0.3 4.81,0.3 7.2,0c1.86,-0.24 3.57,-1.16 4.81,-2.58c1.23,-1.42 1.91,-3.24 1.89,-5.12l0,-11.2c-0.01,-1.41 -0.39,-2.79 -1.1,-4c-0.43,-0.69 -0.67,-1.49 -0.7,-2.3z" fill="#5865F2" id="svg_39"/>
  <path d="m499.3,235.7c0,1.4 4.6,2.5 10.3,2.5c5.7,0 10.3,-1.1 10.3,-2.5l-10.3,-4.1l-10.3,4.1z" fill="#8CD9FF" id="svg_40"/>
  <path d="m498.7,234.9c-0.09,0.15 -0.15,0.32 -0.17,0.49c-0.02,0.17 -0.01,0.35 0.04,0.52c0.05,0.16 0.13,0.32 0.23,0.46c0.11,0.13 0.25,0.25 0.4,0.33c1.7,1 5.7,1.7 10.4,1.7c4.7,0 8.7,-0.7 10.4,-1.7c0.29,-0.19 0.5,-0.47 0.59,-0.8c0.1,-0.34 0.06,-0.69 -0.09,-1l-10.9,-21.4l-10.9,21.4z" id="svg_41" stroke="black" stroke-linecap="round" stroke-linejoin="round" stroke-width="2"/>
  <path d="m508.6,257l-3.1,-0.7c-0.3,-0.11 -0.55,-0.32 -0.7,-0.6c-0.14,-0.28 -0.17,-0.6 -0.08,-0.9c0.1,-0.3 0.3,-0.55 0.58,-0.7c0.15,-0.09 0.32,-0.14 0.49,-0.17c0.17,-0.02 0.35,-0.01 0.52,0.04c0.16,0.04 0.32,0.12 0.46,0.23c0.13,0.11 0.25,0.25 0.33,0.4l1.5,2.4z" fill="white" id="svg_42"/>
  <path d="m508.6,257l-0.2,-3.1c-0.01,-0.15 0.02,-0.29 0.07,-0.43c0.05,-0.14 0.13,-0.26 0.23,-0.37c0.08,-0.13 0.2,-0.24 0.33,-0.32c0.14,-0.08 0.29,-0.12 0.45,-0.13c0.15,-0.01 0.31,0.02 0.45,0.08c0.14,0.06 0.27,0.15 0.37,0.27c0.26,0.22 0.43,0.52 0.46,0.86c0.04,0.34 -0.05,0.67 -0.26,0.94l-1.9,2.2z" fill="white" id="svg_43"/>
  <path d="m509.2,259.9c-1.7,0.5 -3.3,0 -3.7,-1.1c-0.4,-1.1 0.2,-1.7 1.8,-2.1c0.7,-0.18 1.37,-0.45 2,-0.8c1.3,-0.7 2,0.1 2.3,1c0.3,0.9 -0.7,2.4 -2.4,3z" fill="#121B80" id="svg_44"/>
  <path d="m506.14,256.88l-1.2,-0.02c-0.83,-0.02 -1.52,0.64 -1.53,1.47l0,0.09c-0.02,0.83 0.64,1.51 1.47,1.53l1.2,0.02c0.83,0.01 1.51,-0.65 1.53,-1.48l0,-0.09c0.01,-0.82 -0.65,-1.51 -1.47,-1.52z" fill="#FFE75C" id="svg_45"/>
  <path d="m511.8,245.2l2.8,-1.5c0.22,-0.19 0.39,-0.43 0.5,-0.7c0.05,-0.15 0.06,-0.31 0.05,-0.47c-0.02,-0.15 -0.06,-0.31 -0.14,-0.45c-0.07,-0.14 -0.17,-0.26 -0.3,-0.36c-0.12,-0.1 -0.26,-0.17 -0.41,-0.22c-0.33,-0.09 -0.69,-0.05 -0.99,0.12c-0.3,0.17 -0.52,0.45 -0.61,0.78l-0.9,2.8z" fill="white" id="svg_46"/>
  <path d="m511.8,245.2l-0.5,-3.1c-0.11,-0.3 -0.28,-0.57 -0.5,-0.8c-0.28,-0.15 -0.59,-0.2 -0.9,-0.14c-0.31,0.05 -0.59,0.21 -0.8,0.44c-0.19,0.31 -0.26,0.68 -0.18,1.03c0.07,0.36 0.28,0.67 0.58,0.87l2.3,1.7z" fill="white" id="svg_47"/>
  <path d="m512.6,244.8c1.4,1 2.1,2.6 1.4,3.5c-0.7,0.9 -1.5,1 -2.8,-0.1c-0.55,-0.45 -1.15,-0.82 -1.8,-1.1c-0.25,-0.06 -0.47,-0.19 -0.65,-0.37c-0.18,-0.18 -0.31,-0.4 -0.37,-0.65c-0.06,-0.25 -0.06,-0.51 0.02,-0.75c0.07,-0.24 0.21,-0.46 0.4,-0.63c0.6,-1 2.4,-0.9 3.8,0.1z" fill="#121B80" id="svg_48"/>
  <path d="m511.9,248.4l0.71,0.97c0.49,0.67 1.43,0.81 2.1,0.33l0.07,-0.06c0.67,-0.48 0.82,-1.42 0.33,-2.09l-0.71,-0.97c-0.49,-0.67 -1.42,-0.82 -2.09,-0.33l-0.08,0.05c-0.67,0.49 -0.81,1.43 -0.33,2.1z" fill="#FFE75C" id="svg_49"/>
  <path d="m509.6,236.6c5.69,0 10.3,-1.12 10.3,-2.5c0,-1.38 -4.61,-2.5 -10.3,-2.5c-5.69,0 -10.3,1.12 -10.3,2.5c0,1.38 4.61,2.5 10.3,2.5z" fill="#8CD9FF" id="svg_50"/>
  <path d="m520,234.1l-20.7,0l0,1.42l20.7,0l0,-1.42z" fill="#8CD9FF" id="svg_51"/>
  <path d="m513.8,234.9c-0.5,0.1 -0.9,0.4 -0.9,0.9c0.01,0.11 0.05,0.21 0.1,0.3c0.05,0.09 0.12,0.17 0.2,0.24c0.09,0.06 0.18,0.11 0.29,0.14c0.1,0.03 0.21,0.03 0.31,0.02l1.7,-0.3c0.23,-0.04 0.43,-0.14 0.59,-0.31c0.16,-0.16 0.27,-0.36 0.31,-0.59c-0.01,-0.1 -0.04,-0.2 -0.1,-0.29c-0.05,-0.09 -0.12,-0.17 -0.21,-0.22c-0.08,-0.06 -0.18,-0.1 -0.28,-0.11c-0.11,-0.02 -0.21,-0.01 -0.31,0.02l-1.7,0.2z" fill="white" id="svg_52"/>
  <path d="m509.6,213.5l-5.3,24.6" id="svg_53" stroke="black" stroke-linecap="round" stroke-linejoin="round" stroke-width="2"/>
  <path d="m510.4,215.2l-2.6,-5.6" id="svg_54" stroke="black" stroke-linecap="round" stroke-linejoin="round" stroke-width="2"/>
  <path d="m509.8,215.5l0.3,-6.4" id="svg_55" stroke="black" stroke-linecap="round" stroke-linejoin="round" stroke-width="2"/>
  <path d="m481.7,280.4c3.3,-3.8 2.8,-6.1 1.7,-6.8c-1.1,-0.7 -2.8,0.6 -5.8,5.4c-3,4.8 -0.5,6.6 4.1,1.4z" fill="white" id="svg_56"/>
  <path d="m466,280.4c-2.2,-4.6 -6,-7.9 -9.5,-7.4c-3.5,0.5 -2.1,5.7 2.5,9.2c4.6,3.5 9.4,3.2 7,-1.8z" fill="white" id="svg_57"/>
  <path d="m483.2,276.2c0.19,-0.9 0.12,-1.84 -0.2,-2.7c-0.9,-0.1 -2.3,0.9 -4.2,3.6c0.2,1.4 0.9,2.4 1.7,2.5c0.8,0.1 2.5,-1.3 2.7,-3.4z" fill="black" id="svg_58"/>
  <path d="m466.1,280.7c0,-0.1 -0.1,-0.2 -0.1,-0.3c-1.07,-2.32 -2.68,-4.34 -4.7,-5.9c-0.58,1.14 -0.82,2.43 -0.7,3.7c0.2,2.7 1.6,4.8 3.2,4.7c0.57,-0.08 1.09,-0.33 1.51,-0.72c0.41,-0.4 0.69,-0.92 0.79,-1.48z" fill="black" id="svg_59"/>
  <path d="m468,290.7c6.3,-1.6 8.8,-2.3 9.8,-0.9c1,1.4 0.1,3 -1.4,4.6c1.6,3.5 1.1,5.1 -2,5.1c-2.26,-0.16 -4.45,-0.85 -6.4,-2" id="svg_60" stroke="black" stroke-linecap="round" stroke-linejoin="round" stroke-width="2"/>
  <path d="m474.7,292.7c-0.39,1.04 -0.93,2.01 -1.6,2.9" id="svg_61" stroke="black" stroke-linecap="round" stroke-linejoin="round" stroke-width="2"/>
  <path d="m46.6,350.4l10.4,0l7.8,-23.8l-20.5,0l2.3,23.8z" fill="black" id="svg_62"/>
  <path d="m177.7,350.4l-55.7,0c-35.8,0 -56.4,-10.3 -71.8,-22l-3.6,22l-9.1,0c0,-105.6 13.6,-205.8 13.6,-205.8c2,-11.3 23.5,-16.4 50.2,-7.1c26.7,9.3 33.8,21.2 32.8,32c-1,10.8 -9.5,83.6 -12.7,117.7l5.7,6.2c1.97,2.04 3.42,4.52 4.26,7.23c0.83,2.71 1.02,5.57 0.54,8.37l-0.6,3.3c22,14.2 56,7.1 46.4,38.1z" fill="#29CC7A" id="svg_63"/>
  <path d="m62.2,164c-0.9,12.6 -1.1,17.8 -1.1,19.8c-0.01,0.32 0.05,0.63 0.17,0.92c0.12,0.29 0.3,0.56 0.53,0.78c5.9,5.9 12.9,7.8 18.4,8.5c0.32,0.04 0.64,0.02 0.95,-0.07c0.31,-0.09 0.59,-0.25 0.84,-0.45c0.24,-0.21 0.44,-0.47 0.58,-0.76c0.14,-0.28 0.22,-0.6 0.23,-0.92l1.1,-16" id="svg_64" stroke="white" stroke-linecap="round" stroke-miterlimit="10" stroke-width="2"/>
  <path d="m57.8,281.3c-3.31,0.07 -6.59,-0.72 -9.5,-2.3" id="svg_65" stroke="black" stroke-linecap="round" stroke-miterlimit="10" stroke-width="4"/>
  <path d="m49.5,285.9c4.3,0.6 9.6,-1.3 9.6,-1.3" id="svg_66" stroke="black" stroke-linecap="round" stroke-miterlimit="10" stroke-width="4"/>
  <path d="m108.8,214.1c-0.9,9 -1.1,18.9 3.4,21.5c2.8,1.7 8.5,1.5 14.8,-1.5c2.5,-24.9 5.2,-46.3 6.5,-58.4l-29.8,4.9c-2.9,25.7 -3.4,34.1 5.1,33.5z" fill="#15AD75" id="svg_67"/>
  <path d="m129.53,177.68c4.78,-10.02 -8.03,-26.1 -28.62,-35.92c-20.59,-9.82 -41.15,-9.66 -45.93,0.36c-4.78,10.02 8.03,26.1 28.62,35.92c20.59,9.82 41.15,9.66 45.93,-0.36z" fill="black" id="svg_68"/>
  <path d="m50.2,328.4c15.4,11.7 36,22 71.8,22l55.7,0c0.95,-2.88 1.49,-5.87 1.6,-8.9c-59.1,0 -93.4,-1.2 -141,-36.8c-0.4,14.2 -0.7,29.5 -0.8,45.7l9.1,0l3.6,-22z" fill="#57F287" id="svg_69"/>
  <path d="m54.2,278.1c2.6,10.1 9.7,17.8 15.9,17.2c6.2,-0.6 6.4,-6.4 4,-16.1c-0.6,-2.6 -1.1,-5.1 -1.6,-7.7c-1.8,-9.2 -6.3,-13.2 -11.8,-12.7c-5.5,0.5 -9.2,9.3 -6.5,19.3z" fill="white" id="svg_70"/>
  <path d="m54.2,278.1c2.6,10.1 9.7,17.8 15.9,17.2c6.2,-0.6 6.4,-6.4 4,-16.1c-0.6,-2.6 -1.1,-5.1 -1.6,-7.7c-1.8,-9.2 -6.3,-13.2 -11.8,-12.7c-5.5,0.5 -9.2,9.3 -6.5,19.3z" fill="white" id="svg_71"/>
  <path d="m70.5,278.2c1,4.4 0.3,8.3 -1.4,8.6c-1.7,0.3 -3.8,-2 -4.5,-7.5c-0.7,-5.5 -0.3,-8.5 1.4,-8.5c1.7,0 3.6,2.9 4.5,7.4z" fill="black" id="svg_72"/>
  <path d="m128.4,311.5c0.15,0.01 0.3,-0.02 0.43,-0.08c0.14,-0.06 0.25,-0.16 0.34,-0.28c0.09,-0.12 0.15,-0.26 0.17,-0.4c0.02,-0.15 0.01,-0.3 -0.04,-0.44c-2,-10 -8.1,-11.4 -19.4,-8.8c-11.3,2.6 -15.8,3.6 -18,4.4c-2.2,0.8 -1.2,1.3 13.7,3.6c7.53,1.27 15.16,1.94 22.8,2z" fill="#15AD75" id="svg_73"/>
  <path d="m178.8,336.4c-11.1,0.1 -29.6,-0.1 -47.8,-1.3c-33.8,-2.3 -64.9,-14.9 -92.5,-37.4l0,1.8c27.6,22.3 58.6,34.8 92.4,37c17,1.2 34.2,1.4 45.5,1.4l2.7,0l-0.3,-1.5z" fill="black" id="svg_74"/>
  <path d="m72.5,271.6c-1.8,-9.2 -6.3,-13.2 -11.8,-12.7c-5.5,0.5 -7,4.6 -7.4,10.5c6.19,2 12.72,2.75 19.2,2.2z" fill="#5865F2" id="svg_75"/>
  <path d="m214.4,191.3l-33.3,18.6c0.57,0.53 1.29,0.87 2.06,0.98c0.77,0.1 1.55,-0.03 2.24,-0.38c1.9,-0.8 6.5,-5 8.3,-6c1.8,-1 6.9,-3 9.4,-4c3.08,-1.22 5.98,-2.87 8.6,-4.9c2.2,-1.8 3,-2.5 2.7,-4.3z" fill="black" id="svg_76"/>
  <path d="m132.2,122.2c-6.1,-3.8 -6.4,-3.7 -9.8,-9.8c-3.4,-6.1 -7.7,-9.1 -12.7,-9.8l6.2,44.9c13,3.8 21,-2.8 22.8,-9.3c1.8,-6.5 -0.3,-12.2 -6.5,-16z" fill="#3442D9" id="svg_77"/>
  <path d="m126.1,128.1c-1.7,-7.3 -6.2,-15.8 -11.5,-22.2c-1.9,-2.31 -3.25,-5.03 -3.94,-7.94c-0.69,-2.91 -0.71,-5.94 -0.06,-8.86l2.2,-10c1.55,-6.94 0.72,-14.2 -2.34,-20.62c-3.07,-6.41 -8.19,-11.62 -14.56,-14.78c-3.65,-1.8 -7.63,-2.85 -11.7,-3.1c-7.65,-0.56 -15.22,1.88 -21.1,6.81c-5.88,4.93 -9.61,11.96 -10.4,19.59c-0.17,1.29 -0.23,2.6 -0.2,3.9l0,4.3l0.2,18c0.22,8.09 -1.5,16.11 -5,23.4c-1.45,2.89 -2.56,5.95 -3.3,9.1l48.9,52c23.3,-3.9 37.9,-26.4 32.8,-49.6z" fill="#3442D9" id="svg_78"/>
  <path d="m93.4,177.7c23.2,-3.9 37.8,-26.4 32.7,-49.6c-1.6,-6.9 -5.7,-14.9 -10.6,-21.1" id="svg_79" stroke="black" stroke-linecap="round" stroke-miterlimit="10" stroke-width="2"/>
  <path d="m110.5,129.6c4.6,-7.6 6.4,-6.6 14.6,-4.4c6.6,1.7 14.2,15.2 4.1,22c-10.1,6.8 -30.7,2.7 -18.7,-17.6z" fill="#3442D9" id="svg_80"/>
  <path d="m87.7,107.19c0.93,-0.71 1.07,-2.06 0.33,-3.03c-0.73,-0.96 -2.08,-1.17 -3,-0.47c-0.92,0.71 -1.07,2.06 -0.33,3.02c0.74,0.97 2.08,1.18 3,0.48z" fill="black" id="svg_81"/>
  <path d="m100.3,107.97c0.92,-0.7 1.07,-2.06 0.33,-3.02c-0.74,-0.97 -2.08,-1.18 -3,-0.48c-0.93,0.71 -1.07,2.06 -0.34,3.03c0.74,0.96 2.09,1.17 3.01,0.47z" fill="black" id="svg_82"/>
  <path d="m99,106.4c10.7,8.8 6.3,15.1 14.9,28.1" id="svg_83" stroke="white" stroke-linecap="round" stroke-miterlimit="10" stroke-width="3.01"/>
  <path d="m86.9,126.1c6.6,-4.6 8.6,-5.9 11.1,-5.8l6.5,0.6l-1.7,26.4l-16.5,-0.5l0.6,-20.7z" fill="#FFC619" id="svg_84"/>
  <path d="m118.9,119.4c0.12,-0.35 0.17,-0.72 0.12,-1.09c-0.04,-0.37 -0.17,-0.72 -0.37,-1.03c-0.21,-0.31 -0.48,-0.57 -0.8,-0.76c-0.32,-0.19 -0.68,-0.3 -1.05,-0.32l-11,-1.6c-0.8,-0.08 -1.6,0.11 -2.28,0.54c-0.67,0.44 -1.17,1.1 -1.42,1.86l-6.2,23c-0.12,0.35 -0.17,0.72 -0.12,1.09c0.04,0.37 0.17,0.72 0.37,1.03c0.21,0.31 0.48,0.57 0.8,0.76c0.32,0.18 0.68,0.3 1.05,0.32l11,1.6c0.8,0.08 1.6,-0.11 2.28,-0.54c0.67,-0.44 1.17,-1.1 1.42,-1.86l6.2,-23z" fill="black" id="svg_85"/>
  <path d="m118.4,117.1l1.2,1.4l-3.3,0.3l2.1,-1.7z" fill="black" id="svg_86"/>
  <path d="m123.8,132.3c-1.4,-2.3 -2.7,-5.2 -6.5,-5.8l-0.5,4.8l7,1z" fill="#FFC619" id="svg_87"/>
  <path d="m120,120.7c0.11,-0.35 0.13,-0.72 0.08,-1.08c-0.05,-0.36 -0.19,-0.7 -0.39,-1.01c-0.19,-0.3 -0.46,-0.56 -0.77,-0.75c-0.31,-0.19 -0.66,-0.32 -1.02,-0.36l-11.1,-1.6c-0.8,-0.07 -1.59,0.13 -2.26,0.57c-0.67,0.43 -1.18,1.08 -1.44,1.83l-6.2,23c-0.1,0.35 -0.13,0.72 -0.08,1.08c0.05,0.36 0.18,0.7 0.38,1.01c0.2,0.3 0.47,0.56 0.78,0.75c0.31,0.2 0.66,0.32 1.02,0.36l11.1,1.5c0.78,0.13 1.58,-0.04 2.24,-0.46c0.66,-0.43 1.15,-1.08 1.36,-1.84l6.3,-23z" fill="white" id="svg_88"/>
  <path d="m116.6,129.8l4.5,0.7c0.91,0.1 1.75,0.56 2.33,1.27c0.58,0.71 0.85,1.62 0.77,2.53c-0.02,0.48 -0.14,0.94 -0.36,1.36c-0.21,0.43 -0.51,0.81 -0.88,1.11c-0.37,0.3 -0.79,0.52 -1.25,0.64c-0.46,0.13 -0.94,0.16 -1.41,0.09l-3.3,-0.5c-1.02,-0.15 -1.97,-0.63 -2.7,-1.37c-0.72,-0.74 -1.18,-1.7 -1.3,-2.73c-0.02,-0.46 0.06,-0.92 0.24,-1.34c0.18,-0.42 0.45,-0.8 0.8,-1.09c0.35,-0.3 0.76,-0.52 1.2,-0.63c0.45,-0.12 0.91,-0.13 1.36,-0.04z" fill="#FFC619" id="svg_89"/>
  <path d="m115.1,136.5l3.1,0.5c0.52,0.07 1.02,0.24 1.46,0.52c0.44,0.28 0.82,0.65 1.1,1.08c0.29,0.44 0.48,0.94 0.55,1.46c0.08,0.51 0.04,1.04 -0.11,1.54c-0.21,0.81 -0.72,1.5 -1.43,1.95c-0.7,0.44 -1.55,0.6 -2.37,0.45l-1.9,-0.3c-1.04,-0.14 -2,-0.62 -2.74,-1.36c-0.74,-0.74 -1.22,-1.7 -1.36,-2.74c-0.03,-0.47 0.05,-0.94 0.24,-1.37c0.18,-0.43 0.47,-0.81 0.83,-1.11c0.36,-0.31 0.78,-0.52 1.24,-0.62c0.46,-0.11 0.93,-0.11 1.39,0z" fill="#FFC619" id="svg_90"/>
  <path d="m105.4,147.9l-10.8,-1.5l0.5,-4.4l10.8,1.6l-0.5,4.3z" fill="#FFC619" id="svg_91"/>
  <path d="m108,130.4l-6.8,-1c-0.32,-0.04 -0.63,-0.18 -0.88,-0.39c-0.25,-0.22 -0.43,-0.5 -0.52,-0.81l-0.6,-1.8l-0.5,-3.7l-3.7,13l11,1.6c1.02,0.14 2.06,-0.08 2.95,-0.6c0.89,-0.53 1.58,-1.34 1.95,-2.3c0.12,-0.46 0.14,-0.93 0.05,-1.4c-0.09,-0.46 -0.28,-0.9 -0.56,-1.28c-0.27,-0.39 -0.63,-0.7 -1.04,-0.93c-0.42,-0.23 -0.88,-0.36 -1.35,-0.39z" fill="#FFC619" id="svg_92"/>
  <path d="m105.8,137.2l-10.8,-1.5l0.5,7.2l8.3,1.2c1.01,0.15 2.05,-0.06 2.92,-0.59c0.88,-0.52 1.54,-1.34 1.88,-2.31c0.14,-0.45 0.17,-0.92 0.1,-1.39c-0.08,-0.47 -0.26,-0.91 -0.52,-1.29c-0.28,-0.39 -0.63,-0.71 -1.04,-0.93c-0.41,-0.23 -0.87,-0.37 -1.34,-0.39z" fill="#FFC619" id="svg_93"/>
  <path d="m182.4,181.3c0.3,-10.8 -8.6,-12.5 -14.7,-16.3c-6.1,-3.8 -13.3,-11.8 -20.8,-17.2c-7.5,-5.4 -14,-5.3 -26.7,-1.4l14.5,28.2c8.2,4.2 10,8.8 14.4,15c4.4,6.2 10.3,8.6 16.2,7.5c3.1,5.1 3.7,6.3 8.2,4.7c4.5,-1.6 11.9,-5 13.9,-10.9c2,-5.9 -0.9,-6.9 -5,-9.6z" fill="#66BCFF" id="svg_94"/>
  <path d="m174.9,198.4c-3.8,-0.9 -5.3,-3 -7.7,-6.3l-2.1,-2.8c-10.3,-2.1 -14.5,-7.6 -16.8,-11.6c-1.1,-1.9 -3.1,-3.4 -5,-4.8c-1.9,-1.4 -3.8,-2.9 -4.9,-4.7c-0.83,-1.35 -1.56,-2.75 -2.2,-4.2c-0.8,-2.1 -1.5,-3.5 -2.8,-3.9c-1.3,-0.4 -3.5,0.4 -5.6,1.3c-1.91,0.92 -3.92,1.59 -6,2c-0.17,0.03 -0.35,0 -0.5,-0.09c-0.15,-0.1 -0.25,-0.24 -0.3,-0.41c-0.01,-0.18 0.05,-0.36 0.16,-0.5c0.11,-0.15 0.26,-0.25 0.44,-0.3c1.96,-0.33 3.85,-0.97 5.6,-1.9c2.4,-1 4.4,-1.9 6.5,-1.3c2.1,0.6 2.8,2.4 3.7,4.6c0.9,2.2 1.2,2.6 2,4c1.32,1.68 2.91,3.13 4.7,4.3c2,1.6 4.1,3.2 5.3,5.3c2.3,4.1 6.3,9 16.2,11l0.2,0l0.2,0.2c0.9,1.1 1.6,2.2 2.3,3.1c2.2,3.1 3.6,5 6.8,5.8c0.09,-0.01 0.17,0.01 0.25,0.04c0.08,0.04 0.15,0.1 0.2,0.17c0.05,0.07 0.08,0.15 0.09,0.24c0.01,0.08 -0.01,0.17 -0.04,0.25c0.01,0.09 -0.01,0.17 -0.04,0.25c-0.04,0.08 -0.1,0.15 -0.17,0.2c-0.07,0.05 -0.15,0.08 -0.24,0.09c-0.08,0.01 -0.17,0 -0.25,-0.04z" fill="#45AAF7" id="svg_95"/>
  <path d="m134.1,158c-1.34,4.29 -2.22,8.72 -2.6,13.2" id="svg_96" stroke="black" stroke-linecap="round" stroke-miterlimit="10" stroke-width="2"/>
  <path d="m140,210c-9.1,8.2 -16.8,5.9 -20.4,5.5c-3.6,-0.4 -3.2,-3 -3.5,-5.2c-0.3,-2.2 -0.5,-5.5 -0.5,-5.5c-9.1,-0.6 -10.2,-6.8 -10.4,-12.3c-0.2,-5.5 -1.6,-6.3 -2.3,-10.2c-10.97,-1.97 -21.34,-6.44 -30.31,-13.07c-8.96,-6.62 -16.28,-15.22 -21.39,-25.13l9.5,-6.9l21.2,13.8c14.3,-5.3 22.2,-8 29.9,-8.5c7.7,-0.5 15.3,2.4 17.8,13.1c2.5,10.7 2.8,14 5.1,19.1c0.6,1.3 1.6,3.1 2.6,5c2.8,5.7 5.7,13.7 0,22.4c0.7,2.7 1.6,5.34 2.7,7.9z" fill="#8CD9FF" id="svg_97"/>
  <path d="m66.7,164.3c-0.3,-7.1 2.4,-12.1 7.3,-12.9l-12.4,-8.6l-9,3.9c2.3,6.4 8.2,13.4 14.1,17.6z" fill="black" id="svg_98"/>
  <path d="m122.6,211.9l0.2,-1.3c-1.8,-0.3 -1.9,-1.6 -2.4,-7.7l0,-0.8l-0.4,-0.2c-4,-1 -6.7,-3.4 -6.9,-11.5c-0.03,-3.85 -0.81,-7.65 -2.3,-11.2c-0.39,-0.83 -0.69,-1.7 -0.9,-2.6c-0.2,-0.8 -0.5,-1.6 -0.7,-2.3c-1.13,-2.82 -1.44,-5.91 -0.9,-8.9c0.4,-3.1 0.1,-4.8 -0.9,-5.7c-1,-0.9 -3.5,-0.6 -7.2,0.6l-0.5,0c-5.9,1.9 -17.7,5.8 -29.6,6.8l1.5,1.1c11.6,-1.1 22.8,-4.8 28.5,-6.6l0.5,-0.2c3,-1 5.1,-1.5 6,-0.8c0.9,0.7 0.7,2 0.4,4.5c-0.53,3.2 -0.19,6.48 1,9.5c0.26,0.72 0.46,1.45 0.6,2.2c0.3,0.9 0.6,1.8 1,2.7c1.43,3.42 2.17,7.09 2.2,10.8c0.2,7.5 2.3,11.2 7.4,12.7c0.4,6.1 0.6,8.4 3.4,8.9z" fill="#66BCFF" id="svg_99"/>
  <path d="m87.1,124.7c-2.9,-2.5 -5.1,-2.3 -8.6,-0.8c-3.7,-3.4 -8.5,-3.9 -13.5,-2.2c-5,1.7 -12.7,4 -17.2,5.2c-0.25,0.09 -0.52,0.11 -0.79,0.06c-0.26,-0.06 -0.5,-0.19 -0.69,-0.38c-0.19,-0.19 -0.32,-0.43 -0.38,-0.69c-0.05,-0.27 -0.03,-0.54 0.06,-0.79l3.3,-12c-10.7,8 -14.2,25.1 -10.8,34.4c3.4,9.3 18.2,9.2 22.9,6.6c4.7,-2.6 6.3,-3.4 11.7,-2.4c5.4,1 9.6,1.7 16.7,-3.7l4.2,-1.4c1.6,-9.1 0.2,-15.7 -6.9,-21.9z" fill="#3442D9" id="svg_100"/>
  <path d="m87.1,124.7c-2.9,-2.5 -5.1,-2.3 -8.6,-0.8c-3.7,-3.4 -8.5,-3.9 -13.5,-2.2c-5,1.7 -12.7,4 -17.2,5.2" id="svg_101" stroke="black" stroke-linecap="round" stroke-miterlimit="10" stroke-width="2"/>
  <path d="m78.5,123.9c2.99,2.31 5.47,5.21 7.31,8.51c1.84,3.3 2.99,6.93 3.39,10.69" id="svg_102" stroke="black" stroke-linecap="round" stroke-miterlimit="10" stroke-width="2"/>
  <path d="m108.8,120.9c0.05,-0.14 0.06,-0.28 0.04,-0.43c-0.01,-0.14 -0.06,-0.28 -0.14,-0.41c-0.07,-0.12 -0.18,-0.23 -0.3,-0.31c-0.12,-0.08 -0.26,-0.13 -0.4,-0.15l-1,0c-0.28,-0.06 -0.57,-0.01 -0.81,0.14c-0.24,0.15 -0.42,0.38 -0.49,0.66l-0.9,3.3c-0.05,0.15 -0.06,0.3 -0.04,0.45c0.03,0.15 0.09,0.29 0.17,0.42c0.09,0.13 0.2,0.23 0.34,0.31c0.13,0.07 0.28,0.11 0.43,0.12l1,0c0.26,0.03 0.53,-0.03 0.75,-0.18c0.22,-0.14 0.38,-0.36 0.45,-0.62l0.9,-3.3z" fill="#29CC7A" id="svg_103"/>
  <path d="m92.8,101.7c0.77,-1.56 1.91,-2.92 3.32,-3.95c1.42,-1.02 3.05,-1.69 4.78,-1.95c0.2,0 0.3,-0.2 0.2,-0.3c-1.3,-4.8 -0.7,-7.5 1,-11c0.02,-0.03 0.03,-0.05 0.03,-0.08c0.01,-0.03 0,-0.07 -0.01,-0.09c-0.01,-0.03 -0.02,-0.06 -0.04,-0.08c-0.02,-0.02 -0.05,-0.04 -0.08,-0.05c-5.6,-2.4 -7.7,-6.4 -8.3,-9.4c-0.1,-0.2 -0.4,-0.3 -0.5,-0.1c-2.5,5 -5.9,5.2 -8.8,4.8c-0.2,0 -0.3,0.2 -0.2,0.3c2.9,5.6 0.8,9.6 -2.1,12.4c-0.01,0.04 -0.02,0.08 -0.02,0.12c0,0.05 0.01,0.09 0.03,0.12c0.02,0.04 0.05,0.08 0.08,0.1c0.03,0.03 0.07,0.05 0.11,0.06c5.6,1 8.6,4.7 10,9c0.1,0.2 0.4,0.3 0.5,0.1z" fill="#FFC619" id="svg_104"/>
  <path d="m105.8,137.2l-5.7,-0.8" id="svg_105" stroke="black" stroke-linecap="round" stroke-miterlimit="10" stroke-width="2"/>
  <path d="m116.2,136.9l3.2,0.5" id="svg_106" stroke="black" stroke-linecap="round" stroke-miterlimit="10" stroke-width="2"/>
  <path d="m93.5,74.6c2.5,-5.6 2.3,-9.5 1.6,-11.7" id="svg_107" stroke="black" stroke-linecap="round" stroke-miterlimit="10" stroke-width="2"/>
  <path d="m101.5,84.4c1.56,0.24 3.15,0.14 4.67,-0.29c1.52,-0.43 2.93,-1.19 4.13,-2.21" id="svg_108" stroke="black" stroke-linecap="round" stroke-miterlimit="10" stroke-width="2"/>
  <path d="m92.8,101.7c0.01,0.74 -0.09,1.49 -0.3,2.2" id="svg_109" stroke="black" stroke-linecap="round" stroke-miterlimit="10" stroke-width="2"/>
  <path d="m82.6,92.3c-3.7,2.6 -9.3,2.2 -13.2,1" id="svg_110" stroke="black" stroke-linecap="round" stroke-miterlimit="10" stroke-width="2"/>
  <path d="m84.4,79.5c-1.4,-2.9 -4,-6.2 -6.4,-7.3" id="svg_111" stroke="black" stroke-linecap="round" stroke-miterlimit="10" stroke-width="2"/>
  <path d="m101.1,95.5c1.29,0.69 2.67,1.19 4.1,1.5" id="svg_112" stroke="black" stroke-linecap="round" stroke-miterlimit="10" stroke-width="2"/>
  <path d="m90.4,84.8c1.7,6.6 3.9,6.2 4.9,4.2c1,-2 1.7,-4.5 3.3,-4.3c1.6,0.2 1.2,3 -0.7,7c-1.9,4 -5,4.9 -7.9,1.4c-2.9,-3.5 -3,-6.9 -3.1,-9.3c-0.1,-2.4 2.4,-3 3.5,1z" fill="#C40655" id="svg_113"/>
  <path d="m86.4,105.6c1.2,13.8 -5.8,20.4 -8,34.1" id="svg_114" stroke="white" stroke-linecap="round" stroke-miterlimit="10" stroke-width="3.01"/>
  <path d="m102.1,182.4c-1.8,-5.9 -2.6,-16.7 2.3,-26.2" id="svg_115" stroke="black" stroke-linecap="round" stroke-miterlimit="10" stroke-width="2"/>
  <path d="m101,167.7c-1.13,-2.19 -1.68,-4.64 -1.6,-7.1" id="svg_116" stroke="black" stroke-linecap="round" stroke-miterlimit="10" stroke-width="2"/>
  <path d="m51.7,125.8l-7.4,2.4" id="svg_117" stroke="black" stroke-linecap="round" stroke-miterlimit="10" stroke-width="2"/>
  <path d="m125.2,124.9l5,1.4" id="svg_118" stroke="black" stroke-linecap="round" stroke-miterlimit="10" stroke-width="2"/>
  <path d="m214.4,191.2c-0.55,0.8 -1.19,1.54 -1.9,2.2c-3.2,3.2 -10.5,6.8 -14.4,8.3c-2.97,0.94 -5.7,2.51 -8,4.6c-2.9,2.3 -6.5,5.4 -9,3.6c-3.15,-2.9 -6.03,-6.08 -8.6,-9.5c-0.15,-0.18 -0.24,-0.39 -0.28,-0.62c-0.03,-0.23 -0.01,-0.47 0.08,-0.68c1.4,-4 5.9,-9.7 12.4,-12.7c0.22,-0.09 0.45,-0.11 0.68,-0.08c0.23,0.04 0.44,0.13 0.62,0.28c3.8,2.7 6.1,3.4 9.2,3.3c3.1,-0.1 9.1,-2.1 14,-3.5c4.9,-1.4 5,0.8 5.2,4.8z" fill="#FFC619" id="svg_119"/>
  <path d="m175.3,203.9c1.79,2.14 3.72,4.14 5.8,6c2.5,1.8 6.1,-1.3 9,-3.6c2.3,-2.09 5.03,-3.66 8,-4.6c3.9,-1.5 11.2,-5.1 14.4,-8.3c0.71,-0.66 1.35,-1.4 1.9,-2.2c-0.2,-4 -1.1,-6 -5.2,-4.8c-4.1,1.2 -6.4,2.2 -9.4,2.9c-0.89,0.24 -1.7,0.72 -2.34,1.39c-0.63,0.67 -1.07,1.51 -1.26,2.41c-0.1,1.1 -0.3,2.2 -0.5,3.5c-5.4,-1.1 -10.6,0.7 -11.7,7.8c0,0 -4.6,-2.5 -8.7,-0.5z" fill="#FFE75C" id="svg_120"/>
  <path d="m212.5,193.4l1.9,-2.1c0.13,-0.21 0.2,-0.45 0.2,-0.7c-0.09,-0.76 -0.29,-1.5 -0.6,-2.2c-0.8,1.5 -2.2,3 -5.3,5.3c-4.9,3.6 -10.4,4.9 -13.7,6c-3.02,1.13 -5.78,2.86 -8.1,5.1c-1.83,2.06 -4.23,3.52 -6.9,4.2l1.1,0.9c2.5,1.8 6.1,-1.3 9,-3.6c2.3,-2.09 5.03,-3.66 8,-4.6c3.9,-1.5 11.2,-5.1 14.4,-8.3z" fill="white" id="svg_121"/>
  <path d="m151.5,197.9c-5.1,-1.4 -10.3,1 -14.9,9.7c-1.3,-1 -4.5,-2.1 -9.3,-1.2c-4.8,0.9 -6.6,3 -7.4,4.6c-0.48,0.92 -0.62,1.98 -0.4,3c0.3,1.3 0.7,3 1.3,5.8c0.9,4.3 0.4,8.1 2.8,8.5l33.6,-24.2c0,0 0.9,-4.4 -5.7,-6.2z" fill="#FFC619" id="svg_122"/>
  <path d="m151.5,197.9c-5.1,-1.4 -10.3,1 -14.9,9.7c-0.64,1.3 -1.21,2.64 -1.7,4c-5.3,-0.5 -7.8,1.8 -8.7,6.9c0,0 -3.5,-2.4 -5.6,0.4c0.1,0.3 0.1,0.6 0.2,0.9c0.9,4.3 0.4,8.1 2.8,8.5l33.6,-24.2c0,0 0.9,-4.4 -5.7,-6.2z" fill="#FFE75C" id="svg_123"/>
  <path d="m157.2,202.7l-2.5,-2.3c-4.3,-0.7 -7.9,-0.8 -11.7,3.5c-3.8,4.3 -6.3,9 -10.3,11.8c-5.7,4.2 -10.5,5.9 -11.2,9c-0.7,3.1 0.7,3.4 2.1,3.6l33.6,-24.2c0.12,-0.46 0.12,-0.94 0,-1.4z" fill="white" id="svg_124"/>
  <path d="m152.9,198.9l2.4,0.7c0.21,0.03 0.41,0.11 0.58,0.24c0.17,0.12 0.32,0.28 0.42,0.46c0.93,1.57 1.31,3.39 1.1,5.2l-8.8,-1.6c2.9,-1.4 3.9,-2.7 3.6,-4.4c-0.03,-0.09 -0.03,-0.19 -0.01,-0.29c0.03,-0.09 0.09,-0.18 0.16,-0.24c0.08,-0.07 0.17,-0.11 0.27,-0.12c0.09,-0.01 0.19,0.01 0.28,0.05z" fill="white" id="svg_125"/>
  <path d="m123.8,228.4c8.6,1.7 12.4,-1 16.1,-4.8c1.54,-1.7 3.32,-3.15 5.3,-4.3c5.1,-2.9 9.1,-6 11.8,-10.9c2.7,-4.9 -5.6,-8.1 -11,-3.6c-5.4,4.5 -5.7,9.8 -16.4,16.4c-7.3,4.6 -8.3,6.7 -5.8,7.2z" fill="black" id="svg_126"/>
  <path d="m125.02,212.79c0.05,-0.99 -0.4,-1.82 -1.01,-1.85c-0.6,-0.03 -1.13,0.75 -1.18,1.74c-0.06,1 0.4,1.82 1,1.85c0.61,0.04 1.14,-0.74 1.19,-1.74z" fill="white" id="svg_127"/>
  <path d="m214.7,190c-0.18,-1.01 -0.51,-1.99 -1,-2.9c-0.1,-0.1 -0.2,-0.2 -0.3,-0.1l-0.1,0c-0.2,0 -0.2,0.1 -0.2,0.2c0.5,2.1 0.7,4.5 -0.4,5.9c2.3,-1.8 2.1,-2.8 2,-3.1z" fill="white" id="svg_128"/>
  <path d="m179.02,200.63c0.92,-0.2 1.41,-1.5 1.1,-2.91c-0.32,-1.4 -1.31,-2.37 -2.23,-2.16c-0.92,0.2 -1.4,1.5 -1.09,2.91c0.31,1.4 1.31,2.37 2.22,2.16z" fill="white" id="svg_129"/>
  <path d="m254,350.4c42.3,0 77,-17.6 122.6,-57.8c45.6,-40.2 61.6,-53.4 74.5,-65.9c12.9,-12.5 12,-20.6 5.3,-36.6c-6.7,-16 -11.1,-13.7 -11.1,-13.7c-0.8,-13 -13.5,-34.5 -27.5,-51.8c-14,-17.3 -22.4,-14.5 -37.8,-14.5c-15.4,0 -20.5,4.2 -27.4,22.6c-6.9,18.4 -24.1,34 -56.6,39.7c-32.5,5.7 -50.3,5.4 -51.2,21.7c-0.9,16.3 0,44.4 -14.4,66.6c-17.9,8.65 -36.72,15.26 -56.1,19.7c-11.4,2.6 -13.8,10.1 -14.9,19.9c-1.1,9.8 2.9,15.1 4.8,18.2c-3.9,3.7 -3.1,5.3 -1.2,14c0.8,3.5 1.7,7 2.5,10.1c0.65,2.25 2.02,4.23 3.89,5.64c1.88,1.41 4.16,2.16 6.51,2.16l78.1,0z" fill="#66BCFF" id="svg_130"/>
  <path d="m159.4,300.3c-1.1,9.8 2.9,15.1 4.8,18.2l78.3,9l75.8,-11.1c0,0 50,-40.3 43.2,-53.7c-6.8,-13.4 -21.1,-0.8 -40.2,12.2c-19.1,13 -38.9,14.2 -61.6,10.9c-22.7,-3.3 -50.2,-13 -85.4,-5.4c-11.4,2.6 -13.8,10.1 -14.9,19.9z" fill="#45AAF7" id="svg_131"/>
  <path d="m369.6,256c0.1,-17.3 -0.5,-21.4 5.3,-20.6c5.8,0.8 15.3,2.7 15.3,2.7l-10.3,16.3l-10.3,1.6z" fill="#A3E1FF" id="svg_132"/>
  <path d="m400,229.1c0,-8.4 -0.7,-13.9 1.6,-15.1c2.3,-1.2 5,0.3 9.8,4.6c4.8,4.3 -11.4,10.5 -11.4,10.5z" fill="#A3E1FF" id="svg_133"/>
  <path d="m169.2,316.4c-1.3,-10.1 -1,-18.1 1.7,-20.1c2.7,-2 5.3,2.6 7.2,6.6c2.42,5.08 5.44,9.84 9,14.2l-17.9,-0.7z" fill="#A3E1FF" id="svg_134"/>
  <path d="m256,318.6c3.3,-13.5 6.1,-16.8 8.9,-17c2.8,-0.2 4.2,6.2 8.2,15.3l-6.6,3.1l-10.5,-1.4z" fill="#A3E1FF" id="svg_135"/>
  <path d="m436,195.1c-42.5,41.1 -67.9,63.7 -103.5,90.2c-35.6,26.5 -51.5,33.4 -81.4,33.4c-29.9,0 -49.1,-16.8 -86.9,-0.2c-3.9,3.7 -3.1,5.3 -1.2,14c0.8,3.5 1.7,7 2.5,10.1c0.65,2.25 2.02,4.23 3.89,5.64c1.88,1.41 4.16,2.16 6.51,2.16l78.1,0c42.3,0 77,-17.6 122.6,-57.8c45.6,-40.2 61.6,-53.4 74.5,-65.9c12.9,-12.5 12,-20.6 5.3,-36.6c-6.7,-16 -11.1,-13.7 -11.1,-13.7c0,4.5 0.3,9.3 -9.3,18.7z" fill="white" id="svg_136"/>
  <path d="m456.9,191.2c-0.1,5.8 -3.7,12.4 -13.5,21.4c-19.2,17.5 -58.9,53.3 -86.2,76.5c-29.9,25.7 -57.7,46.9 -94.7,46.9c-12.9,0 -27,-2.7 -40.7,-5.3c-24.1,-4.6 -47,-8.9 -58.6,2.7c0.1,0.6 0.3,1.3 0.4,1.9c10.8,-11.9 33.7,-7.6 57.9,-3c13.8,2.6 28,5.3 41,5.3c37.5,0 66.7,-22.4 95.7,-47.2c27.3,-23.3 67.1,-59.2 86.2,-76.6c7.2,-6.6 12.4,-12.7 13.7,-19.4l-1.2,-3.2z" fill="#FFE75C" id="svg_137"/>
  <path d="m345,318l-13.9,-31.6c-5.33,3.93 -10.23,7.43 -14.7,10.5l-1.2,1.4c5.2,-2.2 10.4,0.7 10.8,9.6c0.1,4.8 0.1,14.5 0.1,22.3c6.52,-3.72 12.83,-7.79 18.9,-12.2z" fill="black" id="svg_138"/>
  <path d="m181.7,342.4c-8,0.1 -11.9,3.3 -8.7,6.4c1.16,1.08 2.71,1.66 4.3,1.6l68.7,0c-34.2,0 -37.7,-8.4 -64.3,-8z" fill="black" id="svg_139"/>
  <path d="m417.3,165.9c-10.3,13.2 -13.9,18.4 -9.6,32.5c1.8,6.1 4.1,12.6 6,18l22.3,-21.3c9.6,-9.4 9.3,-14.2 9.3,-18.7c-0.7,-11.1 -10,-28.4 -21.5,-44c5.8,8.4 3.8,20.3 -6.5,33.5z" fill="#45AAF7" id="svg_140"/>
  <path d="m403.6,149.1c5.9,-22.5 5.3,-37.5 -9.2,-39c-4.3,-0.4 -8.9,0 -14.4,0c-15.5,0 -20.5,4.2 -27.4,22.6c-6.9,18.4 -24.1,34 -56.6,39.7c-32.5,5.7 -50.3,5.4 -51.2,21.7c-0.9,16.3 0,44.4 -14.4,66.6c-2.1,3.7 0.4,6.2 30.3,6.2c29.9,0 47.7,-1.8 52.7,-14.3c5,-12.5 12.2,-39.8 15.8,-50.6c3.6,-10.8 3,-17 22.9,-21.5c19.9,-4.5 45.9,-9.7 51.5,-31.4z" fill="#8CD9FF" id="svg_141"/>
  <path d="m334.5,177.7c16,-6.6 27.3,-5.1 44.3,-13.2c17,-8.1 19.2,-14.1 21.3,-25.2c2.1,-11.1 3.6,-24.2 -6.7,-25.1c-10.3,-0.9 -19.6,-0.5 -24.3,1.1c-4.7,1.6 -5.9,4.5 -11,15c-5.1,10.5 -7.6,26.1 -30.5,36.3l6.9,11.1z" fill="black" id="svg_142"/>
  <path d="m199.7,311.4c0.1,5.1 1.5,12.4 4.3,13.1c2.8,0.7 4.1,-5 7,-12.1c-3.1,-3.2 -11.3,-6.5 -11.3,-1z" fill="#A3E1FF" id="svg_143"/>
  <path d="m327.3,288.2c-2.48,0.1 -4.9,0.75 -7.1,1.9c-9.3,4.7 -9.2,8.7 -8.9,10.1c12.7,-7.7 18.3,0.8 21.9,25.7c1.4,9.8 3.9,14.6 11.1,14.6c8.8,0 14,-6.2 13.4,-22.2c-0.14,-3.02 -0.47,-6.03 -1,-9c-2.5,-13.4 -7.7,-26.9 -20.3,-26.9c-1.89,0.09 -3.72,0.68 -5.32,1.7c-1.59,1.01 -2.9,2.43 -3.78,4.1z" fill="#FF78B9" id="svg_144"/>
  <path d="m421.2,243.1c-5.4,4.8 -10.8,5.2 -12,1c-1.2,-4.2 2.1,-11.6 7.5,-16.3l9.4,-8.3c5.4,-4.8 10.8,-5.2 12,-1c1.2,4.2 -2.2,11.6 -7.5,16.3l-9.4,8.3z" fill="#FFA8D2" id="svg_145"/>
  <path d="m327.3,288.2c8.4,0.9 14.8,4.8 17.5,15.4c1.9,7.5 1.3,16.3 2.6,23.9" id="svg_146" stroke="black" stroke-linecap="round" stroke-linejoin="round" stroke-width="2"/>
  <path d="m423,168.2l-2.5,3.4c-7.9,10.3 -10.8,14.1 -2.4,40.6l1.3,-1.2c-7.9,-25 -5.3,-28.5 2.3,-38.4l2.6,-3.4c6.2,-8.4 8.5,-16.7 8.3,-23.8l-1.8,-2.8c1,7.3 -1,16.4 -7.8,25.6z" fill="#5865F2" id="svg_147"/>
  <path d="m309.1,306.6c0.8,-4.5 -0.2,-6.7 -2.5,-6.4c-2.3,0.3 -4.3,1.7 -6.5,6.8c1.8,19.5 7,11.9 9,-0.4z" fill="#A3E1FF" id="svg_148"/>
  <path d="m391.3,117.4l15.7,-2c2.5,-0.3 3.4,-6 4.5,-13.2c1.1,-7.2 -0.2,-20.3 -0.2,-20.3l-16.2,4.9l-3.8,30.6z" fill="#FF78B9" id="svg_149"/>
  <path d="m434.9,77.2c-6.7,-7.5 -40.7,-33.7 -40.7,-33.7l-8,11.5c0,0 11.3,12.5 19.4,20.9c-16.4,1.3 -46,5.2 -46,5.2c-21,-4.2 -29.9,-6.2 -29.9,-6.2l21.6,-20.5l-7.9,-11.8c0,0 -20.6,12.6 -32.2,21.7c-11.6,9.1 -13.5,20.3 -2.5,28.8c11,8.5 14.7,11.1 14.7,11.1l70.9,7.3c20.8,-5.8 33.2,-12.1 40.7,-18.6c7.5,-6.5 6.6,-8.2 -0.1,-15.7z" fill="#FFC619" id="svg_150"/>
  <path d="m317.5,73.8c2.5,0.4 6.9,1.6 6.9,1.6" id="svg_151" stroke="black" stroke-linecap="round" stroke-linejoin="round" stroke-width="2"/>
  <path d="m389.9,39.9l-7.1,11.9l8,8.2c2.6,-2.9 5.2,-8 4.4,-15.7l-5.3,-4.4z" fill="black" id="svg_152"/>
  <path d="m343.9,91.9c-9.6,-11.8 -13,-16.9 -15,-22.8c-1.4,-4.3 7.1,-1.7 18.1,1.6c11,3.3 9.3,6.4 -3.1,21.2z" fill="#FF78B9" id="svg_153"/>
  <path d="m330.1,74.6c-10.1,11.3 -10.3,25.1 -9.2,44.4c0,0 -17.4,17.5 -14.9,32.8c2.5,15.3 26.3,21.9 53.4,21.6c21.8,-0.2 24.2,-5.3 26.2,-15.6c1.2,-6.7 2.1,-14.4 2.7,-20.4c0.61,-6.31 2.19,-12.48 4.7,-18.3c13.4,-31.1 2.6,-42.3 2.6,-42.3l-36.2,2.9l-29.3,-5.1z" fill="#FF78B9" id="svg_154"/>
  <path d="m338.1,58.4c-8.5,6.3 -6.7,15.9 5.3,29.1l5.4,5.4l34.9,-5.7c11.2,-13.9 9,-23.2 4.9,-29c5.7,-9.4 6.1,-15.9 6,-21.7c-0.1,-9.8 -9,-25.2 -31.4,-25c-12.2,0.1 -23,4.9 -26.9,20.4c-1.4,5.4 -1.7,14.2 1.8,26.5z" fill="#FFE75C" id="svg_155"/>
  <path d="m381.3,24.2c0.27,0 0.53,0.05 0.78,0.16c0.24,0.11 0.46,0.27 0.64,0.47c0.18,0.19 0.31,0.43 0.4,0.68c0.08,0.26 0.11,0.52 0.08,0.79l-1.2,13.5c-0.35,3.03 -1.78,5.83 -4.01,7.9c-2.24,2.07 -5.14,3.28 -8.19,3.4l-2.7,0c-3.18,0.03 -6.27,-1.1 -8.68,-3.18c-2.41,-2.08 -3.98,-4.97 -4.42,-8.12l-0.5,-4.5c-0.07,-0.53 -0.34,-1.02 -0.74,-1.36c-0.41,-0.35 -0.92,-0.54 -1.46,-0.54c-0.55,0 -1.08,0.2 -1.49,0.57c-0.41,0.37 -0.66,0.88 -0.71,1.43l-0.6,7.2c-0.22,2.38 -1.31,4.59 -3.07,6.22c-1.75,1.62 -4.04,2.54 -6.43,2.58c-1.43,0.05 -2.86,-0.2 -4.18,-0.75c-1.32,-0.56 -2.51,-1.39 -3.48,-2.44c-0.97,-1.06 -1.7,-2.31 -2.14,-3.68c-0.44,-1.36 -0.57,-2.81 -0.4,-4.23l1.2,-13.6c0.07,-0.54 0.33,-1.04 0.73,-1.4c0.41,-0.37 0.93,-0.58 1.47,-0.6l49.1,-0.5z" fill="black" id="svg_156"/>
  <path d="m382.6,24.7l12,11.8l0,2.4l-11.9,-8.3l-0.1,-5.9z" fill="black" id="svg_157"/>
  <path d="m395.6,76.7c-5.63,-5.32 -12.26,-9.46 -19.5,-12.2c-6.5,-2.3 -8,-2.9 -9.5,0.8c-1.5,3.7 -3.1,7.9 -3.7,9.3c-0.6,1.4 -7.7,6.2 -12,9.8c-4.3,3.6 -8.8,11.3 -8.8,11.3l45.6,3.5l7.9,-22.5z" fill="#FF78B9" id="svg_158"/>
  <path d="m405.4,75.7l5.9,6.2c-2.7,8.4 -4.4,18.9 -5.4,30.6l-23.3,1.7l13,-37.4l9.8,-1.1z" fill="#FF78B9" id="svg_159"/>
  <path d="m330.1,74.6l-4.3,-0.8c-0.66,-0.1 -1.33,-0.05 -1.97,0.14c-0.64,0.19 -1.23,0.52 -1.73,0.96c-4.89,4.46 -8.2,10.39 -9.4,16.9c-1.3,7.6 -0.9,8.4 7.9,13.1c5.9,3.2 12,-10.8 15.3,-20.3c0.38,-1.04 0.53,-2.14 0.44,-3.24c-0.09,-1.1 -0.43,-2.17 -0.98,-3.13c-0.56,-0.95 -1.32,-1.77 -2.23,-2.4c-0.9,-0.63 -1.94,-1.05 -3.03,-1.23z" fill="#FF78B9" id="svg_160"/>
  <path d="m334.3,152.4c-7.66,-8.92 -16.27,-16.97 -25.7,-24l-22.4,11.7l7.3,21.8c0,0 6,7.6 11.6,13.6c5.6,6 15.7,6.2 34.3,7.8c7,-12.5 3.8,-20.4 -5.1,-30.9z" fill="#2835BD" id="svg_161"/>
  <path d="m297.8,161.5l2,-9.7" id="svg_162" stroke="black" stroke-linecap="round" stroke-linejoin="round" stroke-width="2"/>
  <path d="m376.4,148.3c-1.8,-4.9 -7.3,-8.8 -31.9,-10l-9.1,-9.2l-25.3,19.3c9,15.2 19.2,33.5 29.3,34.9c10.1,1.4 19.2,0.7 31.2,-6.6c7.6,-4.7 8.6,-6.9 8.8,-10.9c-0.15,-5.95 -1.16,-11.84 -3,-17.5z" fill="#3442D9" id="svg_163"/>
  <path d="m403.6,149.1c-5.6,21.7 -31.6,26.8 -51.5,31.4c-18,4.1 -19.2,9.5 -21.9,18.5l-13.6,-3.6l0,-14l17.9,-3.7c16,-6.6 27.3,-5.1 44.3,-13.2c17,-8.1 19.2,-14.1 21.3,-25.2c1.3,-6.5 2.3,-13.9 0.7,-19l5.7,0.8c1.5,6.8 0.2,16.4 -2.9,28z" fill="#8CD9FF" id="svg_164"/>
  <path d="m251.4,170.6c-1.33,0.8 -2.34,2.03 -2.89,3.48c-0.54,1.45 -0.58,3.04 -0.11,4.52c2.9,9.2 4.2,16.3 1.5,38.7c-2.7,22.4 -7.2,34.8 -9.3,39.4c-0.13,0.27 -0.19,0.57 -0.18,0.87c0.01,0.31 0.09,0.6 0.24,0.87c0.14,0.26 0.35,0.48 0.6,0.65c0.25,0.17 0.54,0.28 0.84,0.31c11.2,1.7 28,1.5 46.4,-0.9c3.11,-0.41 6.05,-1.63 8.52,-3.55c2.48,-1.91 4.41,-4.45 5.58,-7.35c4.73,-11.74 8.61,-23.8 11.6,-36.1c6.7,-27.6 5.9,-27.1 20.3,-33.8c-1.1,-9.9 -1,-19.4 -11.8,-20.8c-12.6,-1.6 -26.4,4.6 -46.2,10c-4.5,-4 -8.6,-6 -25.1,3.7z" fill="#45AAF7" id="svg_165"/>
  <path d="m305.6,158.4c-8.3,2 -17.7,5.4 -29.1,8.5c-3.3,-2.9 -6.4,-4.8 -14.3,-1.7c-0.29,0.75 -0.53,1.52 -0.7,2.3c-3.6,17.9 -10.4,47.2 10,45.6c20.4,-1.6 22.7,-13.7 22.1,-24.7c-0.6,-11 -1.9,-17.1 0,-20.3c1.9,-3.2 8.6,-8.8 12,-9.7z" fill="#287CEB" id="svg_166"/>
  <path d="m323.9,183.7c-1.4,-11.7 -2.3,-17.3 -5.5,-19.5c-3.2,-2.2 -4.3,-1.5 -8.5,-0.6c-4.2,0.9 -9.5,2.5 -16.3,4.5c-12.7,3.7 -28.5,8.4 -34.5,8l-2,-0.3c1.4,-1.5 10,-4.6 15.7,-6.7l4,-1.5c0.09,-0.02 0.18,-0.07 0.26,-0.12c0.08,-0.06 0.14,-0.14 0.19,-0.22c0.05,-0.08 0.07,-0.18 0.08,-0.27c0.01,-0.1 0,-0.2 -0.03,-0.29l-0.8,0.2l-0.7,-0.6l-3.6,1.3c-13.3,4.9 -17.1,6.6 -16.8,8.5c0.3,1.9 1.8,1.5 3.6,1.6c6.2,0.4 21.5,-4.1 35.1,-8.1c6.7,-2 12.5,-3.7 16.1,-4.4c3.6,-0.7 5.9,-0.7 7.3,0.3c1.4,1 3.6,8 4.9,19.8l1.5,-1.6z" fill="black" id="svg_167"/>
  <path d="m329,38.3l19,-13.8l-7.1,0.1l-11.4,8.3l-0.5,5.4z" fill="#5865F2" id="svg_168"/>
  <path d="m333.6,50c1.64,0.95 3.51,1.44 5.4,1.4c2.39,-0.04 4.68,-0.96 6.43,-2.58c1.76,-1.63 2.85,-3.84 3.07,-6.22l0.3,-3.6l-15.2,11z" fill="#5865F2" id="svg_169"/>
  <path d="m381.3,24.2l-7.9,0l-19.5,14.1l0,1.5c0.23,1.55 0.73,3.04 1.5,4.4l27.1,-19.5c-0.34,-0.29 -0.76,-0.46 -1.2,-0.5z" fill="#5865F2" id="svg_170"/>
  <path d="m382,39.8l0.6,-6.5l-22.2,16.1c2.05,1.13 4.36,1.72 6.7,1.7l2.7,0c3.05,-0.12 5.95,-1.33 8.19,-3.4c2.23,-2.07 3.66,-4.87 4.01,-7.9z" fill="#5865F2" id="svg_171"/>
  <path d="m347.5,52.6c2.67,-0.58 5.43,-0.58 8.1,0" id="svg_172" stroke="black" stroke-linecap="round" stroke-linejoin="round" stroke-width="2"/>
  <path d="m263.7,132c0.1,0.3 0.2,0.5 0.3,0.5c0.1,0 0.2,-0.1 0.3,-0.4" fill="black" id="svg_173"/>
  <path d="m280.7,127.4c-10.8,4.2 -25.9,13 -38.9,20.3c-7.2,4 -9.4,6.4 -5.6,13.7c3.8,7.3 11,14.3 16.4,19.1c5.4,4.8 8.4,2.8 12.4,0.2l28.5,-18.8l15.1,-33.5c-6.3,-4.4 -17,-5.3 -27.9,-1z" fill="#2835BD" id="svg_174"/>
  <path d="m250.2,167.1c4.6,0.9 4.6,1.4 10.3,-2.3c5.7,-3.7 34.4,-21 37.3,-22.9" id="svg_175" stroke="#4150F2" stroke-linecap="round" stroke-miterlimit="10" stroke-width="2"/>
  <path d="m322.4,116.8c-4.5,-3.3 -7.6,-3.5 -31.8,-5.5c-24.2,-2 -35.5,-4.5 -38.3,-0.1c-2.8,4.4 -0.3,15.4 2.5,23.7c2.8,8.3 4.4,11 8.3,11.3c3.9,0.3 40.3,1.5 47,2.2l3.3,5.6l31.1,-15.7c0,0 -17.7,-18.2 -22.1,-21.5z" fill="#3442D9" id="svg_176"/>
  <path d="m245.6,160.4c-6,-4.9 -8.4,-5.8 -7.7,-2.5c0.7,3.3 4.5,8.2 8.6,12.6c4.1,4.4 8.8,8.9 10.4,8.6c1.6,-0.3 -0.3,-3.3 -2.8,-8.1c-2.13,-4.04 -5.02,-7.64 -8.5,-10.6z" fill="black" id="svg_177"/>
  <path d="m252.2,167.7l-5,3.5l-4.1,2.9c-4.9,3.6 -2.9,6.5 -2.5,9.9c0.4,3.4 -0.7,5.9 -3,5.9c-2.3,0 -5.7,-9.6 -8.1,-14.2c-2.4,-4.6 -10.3,-8.3 -14.4,-11.8c-1.7,-1.5 -2.1,-4 0,-4.8c-0.9,-1.3 -2.1,-4.6 0.9,-5.6c3,-1 7.5,4.5 10,6.2c2.5,1.7 5.6,3.3 7.9,2.3c1.58,-0.7 3.12,-1.51 4.6,-2.4l3.4,-2.1l3.7,2.9c2.51,2.13 4.73,4.59 6.6,7.3z" fill="#FF78B9" id="svg_178"/>
  <path d="m403.6,149.1c-5.6,21.7 -31.6,26.8 -51.5,31.4c-19.9,4.6 -19.3,10.6 -22.9,21.5c-3.6,10.9 -10.8,38.2 -15.8,50.6l66.5,-39.1l27.2,-51.6l-3.5,-12.8z" fill="#66BCFF" id="svg_179"/>
  <path d="m326.5,236.9c-2.2,7.7 -4,13.5 -5,17.7c-1,4.2 3.6,3.8 8.5,2.4c4.9,-1.4 7,-3.5 6.2,-7.8c-0.8,-4.3 -7.3,-21 -9.7,-12.3z" fill="white" id="svg_180"/>
  <path d="m245.6,160.4l-3.7,-2.9c-0.9,-0.1 -1.4,-0.1 -1.8,0.2c-0.4,0.3 -0.3,0.5 -0.2,1c2.3,-0.4 8,3.7 8.2,11.8c1.3,0.6 2,1 2.5,0.7c0.5,-0.3 1.2,-1.7 1.6,-3.5c-1.87,-2.71 -4.09,-5.17 -6.6,-7.3z" fill="black" id="svg_181"/>
  <path d="m236.8,185.5c-1,-3.8 -4.4,-11.6 -7.3,-14.7c-2.9,-3.1 -7.5,-10.4 -9,-12.8c-1.5,-2.4 -5.4,-5.4 -6.3,-2.7c-0.19,1.33 0.13,2.69 0.9,3.8c-2.1,0.8 -1.7,3.3 0,4.8c4.1,3.5 11.8,6.7 14.4,11.8c2.6,5.1 4.4,12.5 7.2,14l0.8,0.2c0.5,-0.1 0.2,-1.5 -0.7,-4.4z" fill="#DE3A93" id="svg_182"/>
  <path d="m351.2,5.5c-1.27,3.57 -1.41,7.45 -0.4,11.1c0.16,0.64 0.54,1.21 1.06,1.61c0.53,0.4 1.18,0.61 1.84,0.59l6.1,0c0.68,0 1.35,-0.14 1.97,-0.41c0.62,-0.28 1.18,-0.68 1.63,-1.19c3.7,-3.9 10.4,-4.9 15.6,-2.7l3.1,-4.5c0.33,-0.44 0.5,-0.99 0.46,-1.54c-0.04,-0.55 -0.27,-1.07 -0.66,-1.46c-3.03,-2.87 -6.65,-5.04 -10.6,-6.37c-3.96,-1.33 -8.15,-1.78 -12.3,-1.33c-1.75,0.21 -3.4,0.9 -4.78,2c-1.37,1.09 -2.42,2.55 -3.02,4.2z" fill="#FF8C19" id="svg_183"/>
  <path d="m406.3,107.8c-0.4,4.7 0.4,6.3 1.5,4.4c0.77,-1.71 1.25,-3.53 1.4,-5.4l-2.9,1z" fill="black" id="svg_184"/>
  <path d="m394.3,77.1c-8.6,1.1 -13.4,2.6 -17.7,4.6" id="svg_185" stroke="black" stroke-linecap="round" stroke-linejoin="round" stroke-width="2"/>
  <path d="m411.9,83.1l3.7,3.7" id="svg_186" stroke="black" stroke-linecap="round" stroke-linejoin="round" stroke-width="2"/>
  <path d="m390,118.6c0,0 -4.5,3.3 -7.4,5.7" id="svg_187" stroke="black" stroke-linecap="round" stroke-linejoin="round" stroke-width="2"/>
  <path d="m350.5,92.8l-0.8,11.8l-5.3,0c0.31,-3.87 0.91,-7.72 1.8,-11.5c0.2,-0.65 0.5,-1.25 0.9,-1.8l0,0c1.33,-1.67 2.88,-3.14 4.6,-4.4l9.2,-6.9c2.6,-1.92 4.59,-4.56 5.7,-7.6c1.3,-3.4 2.9,-7.7 3.6,-8.6" id="svg_188" stroke="#F551A0" stroke-linecap="round" stroke-linejoin="round" stroke-width="2"/>
  <path d="m406.2,76.5c-4.2,10.6 -8.8,28.6 -5.3,37.2c0.35,0.81 0.79,1.58 1.3,2.3l2,-0.2c-0.76,-0.78 -1.37,-1.7 -1.8,-2.7c-3.2,-7.7 0.8,-24.3 5,-35.3l-1.2,-1.3z" fill="#F551A0" id="svg_189"/>
  <path d="m313.6,100.4c0.4,0.47 0.87,0.88 1.4,1.2c1,-11.7 5.8,-21.6 13.2,-27.4l-2,-0.3c-6.9,5.9 -11.5,15.4 -12.6,26.5z" fill="#F551A0" id="svg_190"/>
  <path d="m393.9,117.9l-11.1,1.3" id="svg_191" stroke="black" stroke-linecap="round" stroke-linejoin="round" stroke-width="2"/>
  <path d="m379,160.3c-4,2.7 -12.5,6.8 -17.9,8c-1.35,0.28 -2.72,0.41 -4.1,0.4c-2.16,0.08 -4.32,-0.37 -6.27,-1.31c-1.95,-0.94 -3.64,-2.35 -4.93,-4.09l-5.2,-7.3c-4.5,-6.4 -10.2,-14.3 -14.3,-20c-0.1,-0.2 -0.1,-0.3 -0.2,-0.4c-6.2,-8.7 -9.5,-12.5 -14.1,-13.2c-4.6,-0.7 -17.9,-1.9 -41.2,-3.7c-5.8,-0.4 -6.7,-0.3 -7.8,2.3c-0.03,0.1 -0.08,0.19 -0.15,0.26c-0.07,0.08 -0.16,0.14 -0.25,0.18c-0.1,0.03 -0.2,0.05 -0.31,0.04c-0.1,0 -0.2,-0.03 -0.29,-0.08c-0.18,-0.09 -0.33,-0.23 -0.42,-0.41c-0.09,-0.18 -0.12,-0.39 -0.08,-0.59c1.6,-3.9 4,-3.7 9.4,-3.3c13.6,1.1 36.9,2.9 41.4,3.7c4.5,0.8 9.4,5.9 15.1,13.9c0,0.1 0.1,0.2 0.2,0.3c4.1,5.7 9.7,13.7 14.3,20l5.2,7.4c2.8,3.9 7.9,5.5 13.6,4.3c5.7,-1.2 15,-6 18.1,-8.2c0.12,0.59 0.18,1.2 0.2,1.8z" fill="#5865F2" id="svg_192"/>
  <path d="m255.4,112.9c-2.9,2.7 -1.4,8 0.6,15.3c2,7.3 4.5,13.9 5.8,13.7c1.3,-0.2 2,-2.8 2.3,-6.6c0.3,-3.8 0.2,-10.6 -1.3,-15.7c-1.5,-5.1 -5.2,-8.8 -7.4,-6.7z" fill="black" id="svg_193"/>
  <path d="m264.3,132.1l-7.4,-0.9c-3.6,-0.5 -7.2,-0.8 -10.8,-1c-0.7,4.3 -2.2,9.8 -4.3,12c-2.1,2.2 -5.8,2.1 -6.2,-2.9c-0.4,-5 -0.1,-12.1 -3.4,-26.9c-1.2,-5.5 -3.4,-8.8 -4.2,-13c-0.8,-4.2 1.6,-4.9 3.8,-4.5c-0.5,-2.8 -0.3,-6.4 3.2,-6.9c3.5,-0.5 4.9,2.5 4.9,6.4c0.52,-0.72 1.27,-1.24 2.12,-1.48c0.86,-0.23 1.77,-0.17 2.58,0.18c2.4,0.9 2.9,3.9 2.6,8.7c-0.3,4.8 -0.4,9.9 1.6,11.6c2,1.7 2.5,1.1 5.3,1.5l6.8,0.6c0.81,1.28 1.45,2.66 1.9,4.1c1.03,4.09 1.54,8.29 1.5,12.5z" fill="#FF78B9" id="svg_194"/>
  <path d="m264.3,132.1c0.04,-4.21 -0.47,-8.41 -1.5,-12.5c-0.45,-1.44 -1.09,-2.82 -1.9,-4.1l-0.9,0c2.5,3.2 4,11.6 0,16.1c0.56,0.48 1.21,0.85 1.9,1.1c0.85,0.08 1.69,-0.13 2.4,-0.6z" fill="black" id="svg_195"/>
  <path d="m244.7,99c0.4,-4.7 -2.9,-6.7 -4.8,-4.6c0,-3.9 -1.3,-6.9 -4.9,-6.4c-3.6,0.5 -3.7,4.1 -3.2,6.9c-2.2,-0.4 -4.6,0.4 -3.8,4.5c0.8,4.1 3,7.5 4.2,13c3.3,14.8 2.9,21 3.4,26.9c0.01,1.19 0.39,2.35 1.1,3.3c2.3,2.4 3.3,-0.5 3.2,-4.9c-0.05,-6.89 0.35,-13.77 1.2,-20.6c1,-8 3.3,-13.4 3.6,-18.1z" fill="#DE3A93" id="svg_196"/>
  <path d="m235.4,88c3.1,-0.1 3.2,3.8 3.1,8.1l1.4,-1.7c0,-3.7 -1.2,-6.7 -4.5,-6.4z" fill="#FF78B9" id="svg_197"/>
  <path d="m315.7,137.2c-1.57,3.87 -3.44,7.62 -5.6,11.2c4.6,-2 6.5,-3 6.5,-3" id="svg_198" stroke="black" stroke-linecap="round" stroke-linejoin="round" stroke-width="2"/>
  <path d="m345.4,139.2l10.6,10.8c8.6,1.1 10.6,2.9 12.9,5.8" id="svg_199" stroke="black" stroke-linecap="round" stroke-linejoin="round" stroke-width="2"/>
  <path d="m356,150l9.7,0.3" id="svg_200" stroke="black" stroke-linecap="round" stroke-linejoin="round" stroke-width="2"/>
  <path d="m329.6,251.1c-1.3,3.3 -3.5,5.5 -4.9,5c-1.4,-0.5 -1.4,-2.1 0,-5.2c0.6,-1.26 1.11,-2.56 1.5,-3.9c0.8,-2.9 2.3,-3.4 3.4,-2.9c1.1,0.5 1.4,3.6 0,7z" fill="black" id="svg_201"/>
  <path d="m251,206.6c-0.1,1.7 -0.3,3.6 -0.5,5.6l22.4,2.5l-23.6,7.4c-0.5,3.4 -1,6.5 -1.5,9.4l15.6,1.6c-5.3,1.9 -11.1,3.9 -17.3,6.3c-0.8,3.53 -1.6,6.53 -2.4,9l7.3,0.2l-8.2,2.3c-0.6,1.98 -1.34,3.92 -2.2,5.8c-0.1,0.26 -0.17,0.53 -0.2,0.8c8.9,-2.8 17.9,-5.1 26.6,-7c8.88,1.6 17.64,3.84 26.2,6.7c2.17,-0.91 4.11,-2.27 5.7,-4c-3.4,-1.2 -8.4,-2.8 -14.5,-4.5l-3.5,-0.9c8.3,-1.4 16,-2.6 23,-3.5c1.1,-2.8 2.3,-6.1 3.5,-9.7c-6.5,-1.5 -13.2,-2.7 -19.7,-3.8c9.4,-2.9 16.8,-5 23,-6.5c1,-3.4 2,-7 3,-10.8l-13.5,-1.4l14.9,-4.6l1.6,-6.3l-30.5,9.3l-35.2,-3.9zm50.3,32.4c-10.2,1.4 -22.1,3.2 -34.5,5.9c-4.67,-0.8 -9.57,-1.4 -14.7,-1.8c8.9,-3.3 16.7,-6.1 23.7,-8.4c8.1,1.1 16.9,2.5 25.5,4.3zm8.6,-20.3c-8.5,2.1 -19.5,5.2 -34.6,10.3c-8.1,-1.1 -15.4,-1.9 -21.3,-2.5l32.8,-10.3l23.1,2.5z" fill="#3F4EEB" id="svg_202"/>
  <path d="m251.4,198.7c-0.1,1.9 -0.1,4 -0.3,6.4c25.6,-0.8 54.9,-3.9 65.9,-5.2c0.6,-2.6 1.2,-4.8 1.8,-6.7c-7.9,1 -39.8,4.7 -67.4,5.5z" fill="#3F4EEB" id="svg_203"/>
  <path d="m294.7,251.8l4.2,1.4c-1.59,1.73 -3.53,3.09 -5.7,4l-4,-1.3c2.1,-0.97 3.98,-2.36 5.5,-4.1z" fill="black" id="svg_204"/>
  <path d="m304.1,233.9l3.3,0.7c-1.2,3.6 -2.4,6.9 -3.5,9.7l-4.4,0.6c1.87,-3.52 3.41,-7.2 4.6,-11z" fill="black" id="svg_205"/>
  <path d="m309.8,213.1l3.9,0.4c-1,3.8 -2,7.4 -3,10.8l-4,1c0.6,-2 1.1,-4.1 1.6,-6.2c0.1,-0.2 0.1,-0.4 0.2,-0.6c0.4,-1.8 0.9,-3.6 1.3,-5.4z" fill="black" id="svg_206"/>
  <path d="m312.4,202.5l4.3,-1.3l-1.6,6.3l-4.3,1.3c0.5,-2.1 1.1,-4.2 1.6,-6.3z" fill="black" id="svg_207"/>
  <path d="m318.8,193.2c-0.6,1.9 -1.2,4.1 -1.8,6.7l-4.1,0.4l1.8,-6.6l4.1,-0.5z" fill="black" id="svg_208"/>
  <path d="m242.8,250.9l5,-1.4c-0.7,2.2 -1.4,4.3 -2.2,6.4l-5.2,1.6c0.03,-0.27 0.1,-0.54 0.2,-0.8c0.86,-1.88 1.6,-3.82 2.2,-5.8z" fill="black" id="svg_209"/>
  <path d="m246.1,239.4l4.5,-1.7c-0.7,3.8 -1.5,7.3 -2.5,10.8l-4.4,0c0.8,-2.53 1.6,-5.57 2.4,-9.1z" fill="black" id="svg_210"/>
  <path d="m249.3,222.1l3.7,-1.2c-0.4,3.9 -0.9,7.5 -1.4,11l-3.8,-0.4c0.5,-2.9 1,-6 1.5,-9.4z" fill="black" id="svg_211"/>
  <path d="m251,206.6l3.4,0.4l-0.6,5.5l-3.3,-0.3c0.2,-2 0.4,-3.9 0.5,-5.6z" fill="black" id="svg_212"/>
  <path d="m255.2,198.6l-0.6,6.4l-3.5,0c0.2,-2.4 0.2,-4.5 0.3,-6.4l3.8,0z" fill="black" id="svg_213"/>
  <path d="m352.6,224l0.2,8.5c0.01,0.44 0.13,0.87 0.36,1.25c0.22,0.38 0.55,0.69 0.93,0.9c0.39,0.22 0.82,0.32 1.26,0.31c0.44,0 0.87,-0.13 1.25,-0.36c0.45,-0.29 0.8,-0.72 1,-1.22c0.19,-0.51 0.23,-1.06 0.1,-1.58l-2.9,-10l-2.2,2.2z" fill="white" id="svg_214"/>
  <path d="m338,198.4c8,2.5 9.6,11 11.3,25.4c0.04,0.35 0.16,0.69 0.37,0.98c0.21,0.29 0.49,0.52 0.82,0.66c0.33,0.14 0.68,0.19 1.04,0.15c0.35,-0.04 0.69,-0.18 0.97,-0.39l2.8,-2.1c0.73,-0.52 1.31,-1.24 1.66,-2.07c0.36,-0.83 0.47,-1.74 0.34,-2.63c-0.3,-1.8 -0.8,-4.6 -1.3,-8.4c-1.2,-7.4 -6.1,-16.4 -15.5,-17.5c-0.51,-0.05 -1.02,0.06 -1.47,0.31c-0.45,0.25 -0.81,0.63 -1.03,1.09c-0.48,1.14 -0.71,2.36 -0.7,3.6c0.01,0.2 0.08,0.4 0.21,0.56c0.12,0.16 0.3,0.28 0.49,0.34z" fill="#3F4EEB" id="svg_215"/>
 </g>
</svg>